%TF.GenerationSoftware,KiCad,Pcbnew,9.0.3*%
%TF.CreationDate,2025-12-16T11:32:59+01:00*%
%TF.ProjectId,PTP_project1,5054505f-7072-46f6-9a65-6374312e6b69,rev?*%
%TF.SameCoordinates,Original*%
%TF.FileFunction,Legend,Top*%
%TF.FilePolarity,Positive*%
%FSLAX46Y46*%
G04 Gerber Fmt 4.6, Leading zero omitted, Abs format (unit mm)*
G04 Created by KiCad (PCBNEW 9.0.3) date 2025-12-16 11:32:59*
%MOMM*%
%LPD*%
G01*
G04 APERTURE LIST*
%ADD10C,0.200000*%
%ADD11C,0.150000*%
%ADD12C,0.120000*%
G04 APERTURE END LIST*
D10*
X117988720Y-99524950D02*
X117988720Y-97524950D01*
X117988720Y-97524950D02*
X118560149Y-97524950D01*
X118560149Y-97524950D02*
X118703006Y-97620188D01*
X118703006Y-97620188D02*
X118774435Y-97715426D01*
X118774435Y-97715426D02*
X118845863Y-97905902D01*
X118845863Y-97905902D02*
X118845863Y-98191616D01*
X118845863Y-98191616D02*
X118774435Y-98382092D01*
X118774435Y-98382092D02*
X118703006Y-98477331D01*
X118703006Y-98477331D02*
X118560149Y-98572569D01*
X118560149Y-98572569D02*
X117988720Y-98572569D01*
X119274435Y-97524950D02*
X120131578Y-97524950D01*
X119703006Y-99524950D02*
X119703006Y-97524950D01*
X120631577Y-99524950D02*
X120631577Y-97524950D01*
X120631577Y-97524950D02*
X121203006Y-97524950D01*
X121203006Y-97524950D02*
X121345863Y-97620188D01*
X121345863Y-97620188D02*
X121417292Y-97715426D01*
X121417292Y-97715426D02*
X121488720Y-97905902D01*
X121488720Y-97905902D02*
X121488720Y-98191616D01*
X121488720Y-98191616D02*
X121417292Y-98382092D01*
X121417292Y-98382092D02*
X121345863Y-98477331D01*
X121345863Y-98477331D02*
X121203006Y-98572569D01*
X121203006Y-98572569D02*
X120631577Y-98572569D01*
X123274434Y-98763045D02*
X124417292Y-98763045D01*
X126774434Y-98477331D02*
X126988720Y-98572569D01*
X126988720Y-98572569D02*
X127060149Y-98667807D01*
X127060149Y-98667807D02*
X127131577Y-98858283D01*
X127131577Y-98858283D02*
X127131577Y-99143997D01*
X127131577Y-99143997D02*
X127060149Y-99334473D01*
X127060149Y-99334473D02*
X126988720Y-99429712D01*
X126988720Y-99429712D02*
X126845863Y-99524950D01*
X126845863Y-99524950D02*
X126274434Y-99524950D01*
X126274434Y-99524950D02*
X126274434Y-97524950D01*
X126274434Y-97524950D02*
X126774434Y-97524950D01*
X126774434Y-97524950D02*
X126917292Y-97620188D01*
X126917292Y-97620188D02*
X126988720Y-97715426D01*
X126988720Y-97715426D02*
X127060149Y-97905902D01*
X127060149Y-97905902D02*
X127060149Y-98096378D01*
X127060149Y-98096378D02*
X126988720Y-98286854D01*
X126988720Y-98286854D02*
X126917292Y-98382092D01*
X126917292Y-98382092D02*
X126774434Y-98477331D01*
X126774434Y-98477331D02*
X126274434Y-98477331D01*
X128631577Y-99334473D02*
X128560149Y-99429712D01*
X128560149Y-99429712D02*
X128345863Y-99524950D01*
X128345863Y-99524950D02*
X128203006Y-99524950D01*
X128203006Y-99524950D02*
X127988720Y-99429712D01*
X127988720Y-99429712D02*
X127845863Y-99239235D01*
X127845863Y-99239235D02*
X127774434Y-99048759D01*
X127774434Y-99048759D02*
X127703006Y-98667807D01*
X127703006Y-98667807D02*
X127703006Y-98382092D01*
X127703006Y-98382092D02*
X127774434Y-98001140D01*
X127774434Y-98001140D02*
X127845863Y-97810664D01*
X127845863Y-97810664D02*
X127988720Y-97620188D01*
X127988720Y-97620188D02*
X128203006Y-97524950D01*
X128203006Y-97524950D02*
X128345863Y-97524950D01*
X128345863Y-97524950D02*
X128560149Y-97620188D01*
X128560149Y-97620188D02*
X128631577Y-97715426D01*
X129274434Y-99524950D02*
X129274434Y-97524950D01*
X129274434Y-97524950D02*
X129631577Y-97524950D01*
X129631577Y-97524950D02*
X129845863Y-97620188D01*
X129845863Y-97620188D02*
X129988720Y-97810664D01*
X129988720Y-97810664D02*
X130060149Y-98001140D01*
X130060149Y-98001140D02*
X130131577Y-98382092D01*
X130131577Y-98382092D02*
X130131577Y-98667807D01*
X130131577Y-98667807D02*
X130060149Y-99048759D01*
X130060149Y-99048759D02*
X129988720Y-99239235D01*
X129988720Y-99239235D02*
X129845863Y-99429712D01*
X129845863Y-99429712D02*
X129631577Y-99524950D01*
X129631577Y-99524950D02*
X129274434Y-99524950D01*
X132560149Y-99429712D02*
X132417291Y-99524950D01*
X132417291Y-99524950D02*
X132131577Y-99524950D01*
X132131577Y-99524950D02*
X131988720Y-99429712D01*
X131988720Y-99429712D02*
X131917291Y-99334473D01*
X131917291Y-99334473D02*
X131845863Y-99143997D01*
X131845863Y-99143997D02*
X131845863Y-98572569D01*
X131845863Y-98572569D02*
X131917291Y-98382092D01*
X131917291Y-98382092D02*
X131988720Y-98286854D01*
X131988720Y-98286854D02*
X132131577Y-98191616D01*
X132131577Y-98191616D02*
X132417291Y-98191616D01*
X132417291Y-98191616D02*
X132560149Y-98286854D01*
X133417291Y-99524950D02*
X133274434Y-99429712D01*
X133274434Y-99429712D02*
X133203005Y-99334473D01*
X133203005Y-99334473D02*
X133131577Y-99143997D01*
X133131577Y-99143997D02*
X133131577Y-98572569D01*
X133131577Y-98572569D02*
X133203005Y-98382092D01*
X133203005Y-98382092D02*
X133274434Y-98286854D01*
X133274434Y-98286854D02*
X133417291Y-98191616D01*
X133417291Y-98191616D02*
X133631577Y-98191616D01*
X133631577Y-98191616D02*
X133774434Y-98286854D01*
X133774434Y-98286854D02*
X133845863Y-98382092D01*
X133845863Y-98382092D02*
X133917291Y-98572569D01*
X133917291Y-98572569D02*
X133917291Y-99143997D01*
X133917291Y-99143997D02*
X133845863Y-99334473D01*
X133845863Y-99334473D02*
X133774434Y-99429712D01*
X133774434Y-99429712D02*
X133631577Y-99524950D01*
X133631577Y-99524950D02*
X133417291Y-99524950D01*
X135203006Y-98191616D02*
X135203006Y-99524950D01*
X134560148Y-98191616D02*
X134560148Y-99239235D01*
X134560148Y-99239235D02*
X134631577Y-99429712D01*
X134631577Y-99429712D02*
X134774434Y-99524950D01*
X134774434Y-99524950D02*
X134988720Y-99524950D01*
X134988720Y-99524950D02*
X135131577Y-99429712D01*
X135131577Y-99429712D02*
X135203006Y-99334473D01*
X135917291Y-98191616D02*
X135917291Y-99524950D01*
X135917291Y-98382092D02*
X135988720Y-98286854D01*
X135988720Y-98286854D02*
X136131577Y-98191616D01*
X136131577Y-98191616D02*
X136345863Y-98191616D01*
X136345863Y-98191616D02*
X136488720Y-98286854D01*
X136488720Y-98286854D02*
X136560149Y-98477331D01*
X136560149Y-98477331D02*
X136560149Y-99524950D01*
X137060149Y-98191616D02*
X137631577Y-98191616D01*
X137274434Y-97524950D02*
X137274434Y-99239235D01*
X137274434Y-99239235D02*
X137345863Y-99429712D01*
X137345863Y-99429712D02*
X137488720Y-99524950D01*
X137488720Y-99524950D02*
X137631577Y-99524950D01*
X138703006Y-99429712D02*
X138560149Y-99524950D01*
X138560149Y-99524950D02*
X138274435Y-99524950D01*
X138274435Y-99524950D02*
X138131577Y-99429712D01*
X138131577Y-99429712D02*
X138060149Y-99239235D01*
X138060149Y-99239235D02*
X138060149Y-98477331D01*
X138060149Y-98477331D02*
X138131577Y-98286854D01*
X138131577Y-98286854D02*
X138274435Y-98191616D01*
X138274435Y-98191616D02*
X138560149Y-98191616D01*
X138560149Y-98191616D02*
X138703006Y-98286854D01*
X138703006Y-98286854D02*
X138774435Y-98477331D01*
X138774435Y-98477331D02*
X138774435Y-98667807D01*
X138774435Y-98667807D02*
X138060149Y-98858283D01*
X139417291Y-99524950D02*
X139417291Y-98191616D01*
X139417291Y-98572569D02*
X139488720Y-98382092D01*
X139488720Y-98382092D02*
X139560149Y-98286854D01*
X139560149Y-98286854D02*
X139703006Y-98191616D01*
X139703006Y-98191616D02*
X139845863Y-98191616D01*
X118774435Y-100840076D02*
X118631578Y-100744838D01*
X118631578Y-100744838D02*
X118417292Y-100744838D01*
X118417292Y-100744838D02*
X118203006Y-100840076D01*
X118203006Y-100840076D02*
X118060149Y-101030552D01*
X118060149Y-101030552D02*
X117988720Y-101221028D01*
X117988720Y-101221028D02*
X117917292Y-101601980D01*
X117917292Y-101601980D02*
X117917292Y-101887695D01*
X117917292Y-101887695D02*
X117988720Y-102268647D01*
X117988720Y-102268647D02*
X118060149Y-102459123D01*
X118060149Y-102459123D02*
X118203006Y-102649600D01*
X118203006Y-102649600D02*
X118417292Y-102744838D01*
X118417292Y-102744838D02*
X118560149Y-102744838D01*
X118560149Y-102744838D02*
X118774435Y-102649600D01*
X118774435Y-102649600D02*
X118845863Y-102554361D01*
X118845863Y-102554361D02*
X118845863Y-101887695D01*
X118845863Y-101887695D02*
X118560149Y-101887695D01*
X120131578Y-102744838D02*
X120131578Y-101697219D01*
X120131578Y-101697219D02*
X120060149Y-101506742D01*
X120060149Y-101506742D02*
X119917292Y-101411504D01*
X119917292Y-101411504D02*
X119631578Y-101411504D01*
X119631578Y-101411504D02*
X119488720Y-101506742D01*
X120131578Y-102649600D02*
X119988720Y-102744838D01*
X119988720Y-102744838D02*
X119631578Y-102744838D01*
X119631578Y-102744838D02*
X119488720Y-102649600D01*
X119488720Y-102649600D02*
X119417292Y-102459123D01*
X119417292Y-102459123D02*
X119417292Y-102268647D01*
X119417292Y-102268647D02*
X119488720Y-102078171D01*
X119488720Y-102078171D02*
X119631578Y-101982933D01*
X119631578Y-101982933D02*
X119988720Y-101982933D01*
X119988720Y-101982933D02*
X120131578Y-101887695D01*
X120845863Y-102744838D02*
X120845863Y-100744838D01*
X120845863Y-101506742D02*
X120988721Y-101411504D01*
X120988721Y-101411504D02*
X121274435Y-101411504D01*
X121274435Y-101411504D02*
X121417292Y-101506742D01*
X121417292Y-101506742D02*
X121488721Y-101601980D01*
X121488721Y-101601980D02*
X121560149Y-101792457D01*
X121560149Y-101792457D02*
X121560149Y-102363885D01*
X121560149Y-102363885D02*
X121488721Y-102554361D01*
X121488721Y-102554361D02*
X121417292Y-102649600D01*
X121417292Y-102649600D02*
X121274435Y-102744838D01*
X121274435Y-102744838D02*
X120988721Y-102744838D01*
X120988721Y-102744838D02*
X120845863Y-102649600D01*
X122203006Y-102744838D02*
X122203006Y-101411504D01*
X122203006Y-101792457D02*
X122274435Y-101601980D01*
X122274435Y-101601980D02*
X122345864Y-101506742D01*
X122345864Y-101506742D02*
X122488721Y-101411504D01*
X122488721Y-101411504D02*
X122631578Y-101411504D01*
X123131577Y-102744838D02*
X123131577Y-101411504D01*
X123131577Y-100744838D02*
X123060149Y-100840076D01*
X123060149Y-100840076D02*
X123131577Y-100935314D01*
X123131577Y-100935314D02*
X123203006Y-100840076D01*
X123203006Y-100840076D02*
X123131577Y-100744838D01*
X123131577Y-100744838D02*
X123131577Y-100935314D01*
X124417292Y-102649600D02*
X124274435Y-102744838D01*
X124274435Y-102744838D02*
X123988721Y-102744838D01*
X123988721Y-102744838D02*
X123845863Y-102649600D01*
X123845863Y-102649600D02*
X123774435Y-102459123D01*
X123774435Y-102459123D02*
X123774435Y-101697219D01*
X123774435Y-101697219D02*
X123845863Y-101506742D01*
X123845863Y-101506742D02*
X123988721Y-101411504D01*
X123988721Y-101411504D02*
X124274435Y-101411504D01*
X124274435Y-101411504D02*
X124417292Y-101506742D01*
X124417292Y-101506742D02*
X124488721Y-101697219D01*
X124488721Y-101697219D02*
X124488721Y-101887695D01*
X124488721Y-101887695D02*
X123774435Y-102078171D01*
X125345863Y-102744838D02*
X125203006Y-102649600D01*
X125203006Y-102649600D02*
X125131577Y-102459123D01*
X125131577Y-102459123D02*
X125131577Y-100744838D01*
X126988720Y-102649600D02*
X127203006Y-102744838D01*
X127203006Y-102744838D02*
X127560148Y-102744838D01*
X127560148Y-102744838D02*
X127703006Y-102649600D01*
X127703006Y-102649600D02*
X127774434Y-102554361D01*
X127774434Y-102554361D02*
X127845863Y-102363885D01*
X127845863Y-102363885D02*
X127845863Y-102173409D01*
X127845863Y-102173409D02*
X127774434Y-101982933D01*
X127774434Y-101982933D02*
X127703006Y-101887695D01*
X127703006Y-101887695D02*
X127560148Y-101792457D01*
X127560148Y-101792457D02*
X127274434Y-101697219D01*
X127274434Y-101697219D02*
X127131577Y-101601980D01*
X127131577Y-101601980D02*
X127060148Y-101506742D01*
X127060148Y-101506742D02*
X126988720Y-101316266D01*
X126988720Y-101316266D02*
X126988720Y-101125790D01*
X126988720Y-101125790D02*
X127060148Y-100935314D01*
X127060148Y-100935314D02*
X127131577Y-100840076D01*
X127131577Y-100840076D02*
X127274434Y-100744838D01*
X127274434Y-100744838D02*
X127631577Y-100744838D01*
X127631577Y-100744838D02*
X127845863Y-100840076D01*
X127131577Y-99982933D02*
X127417291Y-100268647D01*
X127417291Y-100268647D02*
X127703006Y-99982933D01*
X128703005Y-102744838D02*
X128560148Y-102649600D01*
X128560148Y-102649600D02*
X128488719Y-102554361D01*
X128488719Y-102554361D02*
X128417291Y-102363885D01*
X128417291Y-102363885D02*
X128417291Y-101792457D01*
X128417291Y-101792457D02*
X128488719Y-101601980D01*
X128488719Y-101601980D02*
X128560148Y-101506742D01*
X128560148Y-101506742D02*
X128703005Y-101411504D01*
X128703005Y-101411504D02*
X128917291Y-101411504D01*
X128917291Y-101411504D02*
X129060148Y-101506742D01*
X129060148Y-101506742D02*
X129131577Y-101601980D01*
X129131577Y-101601980D02*
X129203005Y-101792457D01*
X129203005Y-101792457D02*
X129203005Y-102363885D01*
X129203005Y-102363885D02*
X129131577Y-102554361D01*
X129131577Y-102554361D02*
X129060148Y-102649600D01*
X129060148Y-102649600D02*
X128917291Y-102744838D01*
X128917291Y-102744838D02*
X128703005Y-102744838D01*
X130060148Y-102744838D02*
X129917291Y-102649600D01*
X129917291Y-102649600D02*
X129845862Y-102459123D01*
X129845862Y-102459123D02*
X129845862Y-100744838D01*
X131274434Y-102649600D02*
X131131576Y-102744838D01*
X131131576Y-102744838D02*
X130845862Y-102744838D01*
X130845862Y-102744838D02*
X130703005Y-102649600D01*
X130703005Y-102649600D02*
X130631576Y-102554361D01*
X130631576Y-102554361D02*
X130560148Y-102363885D01*
X130560148Y-102363885D02*
X130560148Y-101792457D01*
X130560148Y-101792457D02*
X130631576Y-101601980D01*
X130631576Y-101601980D02*
X130703005Y-101506742D01*
X130703005Y-101506742D02*
X130845862Y-101411504D01*
X130845862Y-101411504D02*
X131131576Y-101411504D01*
X131131576Y-101411504D02*
X131274434Y-101506742D01*
X130703005Y-100649600D02*
X130988719Y-100935314D01*
X130988719Y-100935314D02*
X131274434Y-100649600D01*
X131917290Y-102744838D02*
X131917290Y-101411504D01*
X131917290Y-100744838D02*
X131845862Y-100840076D01*
X131845862Y-100840076D02*
X131917290Y-100935314D01*
X131917290Y-100935314D02*
X131988719Y-100840076D01*
X131988719Y-100840076D02*
X131917290Y-100744838D01*
X131917290Y-100744838D02*
X131917290Y-100935314D01*
X133274434Y-102649600D02*
X133131576Y-102744838D01*
X133131576Y-102744838D02*
X132845862Y-102744838D01*
X132845862Y-102744838D02*
X132703005Y-102649600D01*
X132703005Y-102649600D02*
X132631576Y-102554361D01*
X132631576Y-102554361D02*
X132560148Y-102363885D01*
X132560148Y-102363885D02*
X132560148Y-101792457D01*
X132560148Y-101792457D02*
X132631576Y-101601980D01*
X132631576Y-101601980D02*
X132703005Y-101506742D01*
X132703005Y-101506742D02*
X132845862Y-101411504D01*
X132845862Y-101411504D02*
X133131576Y-101411504D01*
X133131576Y-101411504D02*
X133274434Y-101506742D01*
X133131576Y-100649600D02*
X132917291Y-100935314D01*
D11*
X191238095Y-94004819D02*
X191238095Y-93004819D01*
X191238095Y-93481009D02*
X191809523Y-93481009D01*
X191809523Y-94004819D02*
X191809523Y-93004819D01*
X192714285Y-93338152D02*
X192714285Y-94004819D01*
X192476190Y-92957200D02*
X192238095Y-93671485D01*
X192238095Y-93671485D02*
X192857142Y-93671485D01*
X158124819Y-91166666D02*
X157648628Y-91499999D01*
X158124819Y-91738094D02*
X157124819Y-91738094D01*
X157124819Y-91738094D02*
X157124819Y-91357142D01*
X157124819Y-91357142D02*
X157172438Y-91261904D01*
X157172438Y-91261904D02*
X157220057Y-91214285D01*
X157220057Y-91214285D02*
X157315295Y-91166666D01*
X157315295Y-91166666D02*
X157458152Y-91166666D01*
X157458152Y-91166666D02*
X157553390Y-91214285D01*
X157553390Y-91214285D02*
X157601009Y-91261904D01*
X157601009Y-91261904D02*
X157648628Y-91357142D01*
X157648628Y-91357142D02*
X157648628Y-91738094D01*
X158124819Y-90690475D02*
X158124819Y-90499999D01*
X158124819Y-90499999D02*
X158077200Y-90404761D01*
X158077200Y-90404761D02*
X158029580Y-90357142D01*
X158029580Y-90357142D02*
X157886723Y-90261904D01*
X157886723Y-90261904D02*
X157696247Y-90214285D01*
X157696247Y-90214285D02*
X157315295Y-90214285D01*
X157315295Y-90214285D02*
X157220057Y-90261904D01*
X157220057Y-90261904D02*
X157172438Y-90309523D01*
X157172438Y-90309523D02*
X157124819Y-90404761D01*
X157124819Y-90404761D02*
X157124819Y-90595237D01*
X157124819Y-90595237D02*
X157172438Y-90690475D01*
X157172438Y-90690475D02*
X157220057Y-90738094D01*
X157220057Y-90738094D02*
X157315295Y-90785713D01*
X157315295Y-90785713D02*
X157553390Y-90785713D01*
X157553390Y-90785713D02*
X157648628Y-90738094D01*
X157648628Y-90738094D02*
X157696247Y-90690475D01*
X157696247Y-90690475D02*
X157743866Y-90595237D01*
X157743866Y-90595237D02*
X157743866Y-90404761D01*
X157743866Y-90404761D02*
X157696247Y-90309523D01*
X157696247Y-90309523D02*
X157648628Y-90261904D01*
X157648628Y-90261904D02*
X157553390Y-90214285D01*
X145983095Y-59699819D02*
X145983095Y-60509342D01*
X145983095Y-60509342D02*
X146030714Y-60604580D01*
X146030714Y-60604580D02*
X146078333Y-60652200D01*
X146078333Y-60652200D02*
X146173571Y-60699819D01*
X146173571Y-60699819D02*
X146364047Y-60699819D01*
X146364047Y-60699819D02*
X146459285Y-60652200D01*
X146459285Y-60652200D02*
X146506904Y-60604580D01*
X146506904Y-60604580D02*
X146554523Y-60509342D01*
X146554523Y-60509342D02*
X146554523Y-59699819D01*
X146983095Y-59795057D02*
X147030714Y-59747438D01*
X147030714Y-59747438D02*
X147125952Y-59699819D01*
X147125952Y-59699819D02*
X147364047Y-59699819D01*
X147364047Y-59699819D02*
X147459285Y-59747438D01*
X147459285Y-59747438D02*
X147506904Y-59795057D01*
X147506904Y-59795057D02*
X147554523Y-59890295D01*
X147554523Y-59890295D02*
X147554523Y-59985533D01*
X147554523Y-59985533D02*
X147506904Y-60128390D01*
X147506904Y-60128390D02*
X146935476Y-60699819D01*
X146935476Y-60699819D02*
X147554523Y-60699819D01*
X180357142Y-90454819D02*
X180023809Y-89978628D01*
X179785714Y-90454819D02*
X179785714Y-89454819D01*
X179785714Y-89454819D02*
X180166666Y-89454819D01*
X180166666Y-89454819D02*
X180261904Y-89502438D01*
X180261904Y-89502438D02*
X180309523Y-89550057D01*
X180309523Y-89550057D02*
X180357142Y-89645295D01*
X180357142Y-89645295D02*
X180357142Y-89788152D01*
X180357142Y-89788152D02*
X180309523Y-89883390D01*
X180309523Y-89883390D02*
X180261904Y-89931009D01*
X180261904Y-89931009D02*
X180166666Y-89978628D01*
X180166666Y-89978628D02*
X179785714Y-89978628D01*
X181309523Y-90454819D02*
X180738095Y-90454819D01*
X181023809Y-90454819D02*
X181023809Y-89454819D01*
X181023809Y-89454819D02*
X180928571Y-89597676D01*
X180928571Y-89597676D02*
X180833333Y-89692914D01*
X180833333Y-89692914D02*
X180738095Y-89740533D01*
X182166666Y-89788152D02*
X182166666Y-90454819D01*
X181928571Y-89407200D02*
X181690476Y-90121485D01*
X181690476Y-90121485D02*
X182309523Y-90121485D01*
X181333333Y-80954819D02*
X181000000Y-80478628D01*
X180761905Y-80954819D02*
X180761905Y-79954819D01*
X180761905Y-79954819D02*
X181142857Y-79954819D01*
X181142857Y-79954819D02*
X181238095Y-80002438D01*
X181238095Y-80002438D02*
X181285714Y-80050057D01*
X181285714Y-80050057D02*
X181333333Y-80145295D01*
X181333333Y-80145295D02*
X181333333Y-80288152D01*
X181333333Y-80288152D02*
X181285714Y-80383390D01*
X181285714Y-80383390D02*
X181238095Y-80431009D01*
X181238095Y-80431009D02*
X181142857Y-80478628D01*
X181142857Y-80478628D02*
X180761905Y-80478628D01*
X182190476Y-79954819D02*
X182000000Y-79954819D01*
X182000000Y-79954819D02*
X181904762Y-80002438D01*
X181904762Y-80002438D02*
X181857143Y-80050057D01*
X181857143Y-80050057D02*
X181761905Y-80192914D01*
X181761905Y-80192914D02*
X181714286Y-80383390D01*
X181714286Y-80383390D02*
X181714286Y-80764342D01*
X181714286Y-80764342D02*
X181761905Y-80859580D01*
X181761905Y-80859580D02*
X181809524Y-80907200D01*
X181809524Y-80907200D02*
X181904762Y-80954819D01*
X181904762Y-80954819D02*
X182095238Y-80954819D01*
X182095238Y-80954819D02*
X182190476Y-80907200D01*
X182190476Y-80907200D02*
X182238095Y-80859580D01*
X182238095Y-80859580D02*
X182285714Y-80764342D01*
X182285714Y-80764342D02*
X182285714Y-80526247D01*
X182285714Y-80526247D02*
X182238095Y-80431009D01*
X182238095Y-80431009D02*
X182190476Y-80383390D01*
X182190476Y-80383390D02*
X182095238Y-80335771D01*
X182095238Y-80335771D02*
X181904762Y-80335771D01*
X181904762Y-80335771D02*
X181809524Y-80383390D01*
X181809524Y-80383390D02*
X181761905Y-80431009D01*
X181761905Y-80431009D02*
X181714286Y-80526247D01*
X169084819Y-39166666D02*
X168608628Y-39499999D01*
X169084819Y-39738094D02*
X168084819Y-39738094D01*
X168084819Y-39738094D02*
X168084819Y-39357142D01*
X168084819Y-39357142D02*
X168132438Y-39261904D01*
X168132438Y-39261904D02*
X168180057Y-39214285D01*
X168180057Y-39214285D02*
X168275295Y-39166666D01*
X168275295Y-39166666D02*
X168418152Y-39166666D01*
X168418152Y-39166666D02*
X168513390Y-39214285D01*
X168513390Y-39214285D02*
X168561009Y-39261904D01*
X168561009Y-39261904D02*
X168608628Y-39357142D01*
X168608628Y-39357142D02*
X168608628Y-39738094D01*
X168418152Y-38309523D02*
X169084819Y-38309523D01*
X168037200Y-38547618D02*
X168751485Y-38785713D01*
X168751485Y-38785713D02*
X168751485Y-38166666D01*
X131761905Y-32984819D02*
X131761905Y-31984819D01*
X131761905Y-31984819D02*
X132000000Y-31984819D01*
X132000000Y-31984819D02*
X132142857Y-32032438D01*
X132142857Y-32032438D02*
X132238095Y-32127676D01*
X132238095Y-32127676D02*
X132285714Y-32222914D01*
X132285714Y-32222914D02*
X132333333Y-32413390D01*
X132333333Y-32413390D02*
X132333333Y-32556247D01*
X132333333Y-32556247D02*
X132285714Y-32746723D01*
X132285714Y-32746723D02*
X132238095Y-32841961D01*
X132238095Y-32841961D02*
X132142857Y-32937200D01*
X132142857Y-32937200D02*
X132000000Y-32984819D01*
X132000000Y-32984819D02*
X131761905Y-32984819D01*
X133190476Y-32318152D02*
X133190476Y-32984819D01*
X132952381Y-31937200D02*
X132714286Y-32651485D01*
X132714286Y-32651485D02*
X133333333Y-32651485D01*
X125888095Y-33354819D02*
X125888095Y-32354819D01*
X126459523Y-33354819D02*
X126030952Y-32783390D01*
X126459523Y-32354819D02*
X125888095Y-32926247D01*
X131738095Y-65054819D02*
X131738095Y-65864342D01*
X131738095Y-65864342D02*
X131785714Y-65959580D01*
X131785714Y-65959580D02*
X131833333Y-66007200D01*
X131833333Y-66007200D02*
X131928571Y-66054819D01*
X131928571Y-66054819D02*
X132119047Y-66054819D01*
X132119047Y-66054819D02*
X132214285Y-66007200D01*
X132214285Y-66007200D02*
X132261904Y-65959580D01*
X132261904Y-65959580D02*
X132309523Y-65864342D01*
X132309523Y-65864342D02*
X132309523Y-65054819D01*
X133214285Y-65054819D02*
X133023809Y-65054819D01*
X133023809Y-65054819D02*
X132928571Y-65102438D01*
X132928571Y-65102438D02*
X132880952Y-65150057D01*
X132880952Y-65150057D02*
X132785714Y-65292914D01*
X132785714Y-65292914D02*
X132738095Y-65483390D01*
X132738095Y-65483390D02*
X132738095Y-65864342D01*
X132738095Y-65864342D02*
X132785714Y-65959580D01*
X132785714Y-65959580D02*
X132833333Y-66007200D01*
X132833333Y-66007200D02*
X132928571Y-66054819D01*
X132928571Y-66054819D02*
X133119047Y-66054819D01*
X133119047Y-66054819D02*
X133214285Y-66007200D01*
X133214285Y-66007200D02*
X133261904Y-65959580D01*
X133261904Y-65959580D02*
X133309523Y-65864342D01*
X133309523Y-65864342D02*
X133309523Y-65626247D01*
X133309523Y-65626247D02*
X133261904Y-65531009D01*
X133261904Y-65531009D02*
X133214285Y-65483390D01*
X133214285Y-65483390D02*
X133119047Y-65435771D01*
X133119047Y-65435771D02*
X132928571Y-65435771D01*
X132928571Y-65435771D02*
X132833333Y-65483390D01*
X132833333Y-65483390D02*
X132785714Y-65531009D01*
X132785714Y-65531009D02*
X132738095Y-65626247D01*
X180357142Y-68954819D02*
X180023809Y-68478628D01*
X179785714Y-68954819D02*
X179785714Y-67954819D01*
X179785714Y-67954819D02*
X180166666Y-67954819D01*
X180166666Y-67954819D02*
X180261904Y-68002438D01*
X180261904Y-68002438D02*
X180309523Y-68050057D01*
X180309523Y-68050057D02*
X180357142Y-68145295D01*
X180357142Y-68145295D02*
X180357142Y-68288152D01*
X180357142Y-68288152D02*
X180309523Y-68383390D01*
X180309523Y-68383390D02*
X180261904Y-68431009D01*
X180261904Y-68431009D02*
X180166666Y-68478628D01*
X180166666Y-68478628D02*
X179785714Y-68478628D01*
X181309523Y-68954819D02*
X180738095Y-68954819D01*
X181023809Y-68954819D02*
X181023809Y-67954819D01*
X181023809Y-67954819D02*
X180928571Y-68097676D01*
X180928571Y-68097676D02*
X180833333Y-68192914D01*
X180833333Y-68192914D02*
X180738095Y-68240533D01*
X181880952Y-68383390D02*
X181785714Y-68335771D01*
X181785714Y-68335771D02*
X181738095Y-68288152D01*
X181738095Y-68288152D02*
X181690476Y-68192914D01*
X181690476Y-68192914D02*
X181690476Y-68145295D01*
X181690476Y-68145295D02*
X181738095Y-68050057D01*
X181738095Y-68050057D02*
X181785714Y-68002438D01*
X181785714Y-68002438D02*
X181880952Y-67954819D01*
X181880952Y-67954819D02*
X182071428Y-67954819D01*
X182071428Y-67954819D02*
X182166666Y-68002438D01*
X182166666Y-68002438D02*
X182214285Y-68050057D01*
X182214285Y-68050057D02*
X182261904Y-68145295D01*
X182261904Y-68145295D02*
X182261904Y-68192914D01*
X182261904Y-68192914D02*
X182214285Y-68288152D01*
X182214285Y-68288152D02*
X182166666Y-68335771D01*
X182166666Y-68335771D02*
X182071428Y-68383390D01*
X182071428Y-68383390D02*
X181880952Y-68383390D01*
X181880952Y-68383390D02*
X181785714Y-68431009D01*
X181785714Y-68431009D02*
X181738095Y-68478628D01*
X181738095Y-68478628D02*
X181690476Y-68573866D01*
X181690476Y-68573866D02*
X181690476Y-68764342D01*
X181690476Y-68764342D02*
X181738095Y-68859580D01*
X181738095Y-68859580D02*
X181785714Y-68907200D01*
X181785714Y-68907200D02*
X181880952Y-68954819D01*
X181880952Y-68954819D02*
X182071428Y-68954819D01*
X182071428Y-68954819D02*
X182166666Y-68907200D01*
X182166666Y-68907200D02*
X182214285Y-68859580D01*
X182214285Y-68859580D02*
X182261904Y-68764342D01*
X182261904Y-68764342D02*
X182261904Y-68573866D01*
X182261904Y-68573866D02*
X182214285Y-68478628D01*
X182214285Y-68478628D02*
X182166666Y-68431009D01*
X182166666Y-68431009D02*
X182071428Y-68383390D01*
X130738095Y-37814819D02*
X130738095Y-38624342D01*
X130738095Y-38624342D02*
X130785714Y-38719580D01*
X130785714Y-38719580D02*
X130833333Y-38767200D01*
X130833333Y-38767200D02*
X130928571Y-38814819D01*
X130928571Y-38814819D02*
X131119047Y-38814819D01*
X131119047Y-38814819D02*
X131214285Y-38767200D01*
X131214285Y-38767200D02*
X131261904Y-38719580D01*
X131261904Y-38719580D02*
X131309523Y-38624342D01*
X131309523Y-38624342D02*
X131309523Y-37814819D01*
X132309523Y-38814819D02*
X131738095Y-38814819D01*
X132023809Y-38814819D02*
X132023809Y-37814819D01*
X132023809Y-37814819D02*
X131928571Y-37957676D01*
X131928571Y-37957676D02*
X131833333Y-38052914D01*
X131833333Y-38052914D02*
X131738095Y-38100533D01*
X162624819Y-91642857D02*
X162148628Y-91976190D01*
X162624819Y-92214285D02*
X161624819Y-92214285D01*
X161624819Y-92214285D02*
X161624819Y-91833333D01*
X161624819Y-91833333D02*
X161672438Y-91738095D01*
X161672438Y-91738095D02*
X161720057Y-91690476D01*
X161720057Y-91690476D02*
X161815295Y-91642857D01*
X161815295Y-91642857D02*
X161958152Y-91642857D01*
X161958152Y-91642857D02*
X162053390Y-91690476D01*
X162053390Y-91690476D02*
X162101009Y-91738095D01*
X162101009Y-91738095D02*
X162148628Y-91833333D01*
X162148628Y-91833333D02*
X162148628Y-92214285D01*
X162624819Y-90690476D02*
X162624819Y-91261904D01*
X162624819Y-90976190D02*
X161624819Y-90976190D01*
X161624819Y-90976190D02*
X161767676Y-91071428D01*
X161767676Y-91071428D02*
X161862914Y-91166666D01*
X161862914Y-91166666D02*
X161910533Y-91261904D01*
X161624819Y-90071428D02*
X161624819Y-89976190D01*
X161624819Y-89976190D02*
X161672438Y-89880952D01*
X161672438Y-89880952D02*
X161720057Y-89833333D01*
X161720057Y-89833333D02*
X161815295Y-89785714D01*
X161815295Y-89785714D02*
X162005771Y-89738095D01*
X162005771Y-89738095D02*
X162243866Y-89738095D01*
X162243866Y-89738095D02*
X162434342Y-89785714D01*
X162434342Y-89785714D02*
X162529580Y-89833333D01*
X162529580Y-89833333D02*
X162577200Y-89880952D01*
X162577200Y-89880952D02*
X162624819Y-89976190D01*
X162624819Y-89976190D02*
X162624819Y-90071428D01*
X162624819Y-90071428D02*
X162577200Y-90166666D01*
X162577200Y-90166666D02*
X162529580Y-90214285D01*
X162529580Y-90214285D02*
X162434342Y-90261904D01*
X162434342Y-90261904D02*
X162243866Y-90309523D01*
X162243866Y-90309523D02*
X162005771Y-90309523D01*
X162005771Y-90309523D02*
X161815295Y-90261904D01*
X161815295Y-90261904D02*
X161720057Y-90214285D01*
X161720057Y-90214285D02*
X161672438Y-90166666D01*
X161672438Y-90166666D02*
X161624819Y-90071428D01*
X113833333Y-88009580D02*
X113785714Y-88057200D01*
X113785714Y-88057200D02*
X113642857Y-88104819D01*
X113642857Y-88104819D02*
X113547619Y-88104819D01*
X113547619Y-88104819D02*
X113404762Y-88057200D01*
X113404762Y-88057200D02*
X113309524Y-87961961D01*
X113309524Y-87961961D02*
X113261905Y-87866723D01*
X113261905Y-87866723D02*
X113214286Y-87676247D01*
X113214286Y-87676247D02*
X113214286Y-87533390D01*
X113214286Y-87533390D02*
X113261905Y-87342914D01*
X113261905Y-87342914D02*
X113309524Y-87247676D01*
X113309524Y-87247676D02*
X113404762Y-87152438D01*
X113404762Y-87152438D02*
X113547619Y-87104819D01*
X113547619Y-87104819D02*
X113642857Y-87104819D01*
X113642857Y-87104819D02*
X113785714Y-87152438D01*
X113785714Y-87152438D02*
X113833333Y-87200057D01*
X114690476Y-87438152D02*
X114690476Y-88104819D01*
X114452381Y-87057200D02*
X114214286Y-87771485D01*
X114214286Y-87771485D02*
X114833333Y-87771485D01*
X158048095Y-60234819D02*
X158048095Y-61044342D01*
X158048095Y-61044342D02*
X158095714Y-61139580D01*
X158095714Y-61139580D02*
X158143333Y-61187200D01*
X158143333Y-61187200D02*
X158238571Y-61234819D01*
X158238571Y-61234819D02*
X158429047Y-61234819D01*
X158429047Y-61234819D02*
X158524285Y-61187200D01*
X158524285Y-61187200D02*
X158571904Y-61139580D01*
X158571904Y-61139580D02*
X158619523Y-61044342D01*
X158619523Y-61044342D02*
X158619523Y-60234819D01*
X159000476Y-60234819D02*
X159619523Y-60234819D01*
X159619523Y-60234819D02*
X159286190Y-60615771D01*
X159286190Y-60615771D02*
X159429047Y-60615771D01*
X159429047Y-60615771D02*
X159524285Y-60663390D01*
X159524285Y-60663390D02*
X159571904Y-60711009D01*
X159571904Y-60711009D02*
X159619523Y-60806247D01*
X159619523Y-60806247D02*
X159619523Y-61044342D01*
X159619523Y-61044342D02*
X159571904Y-61139580D01*
X159571904Y-61139580D02*
X159524285Y-61187200D01*
X159524285Y-61187200D02*
X159429047Y-61234819D01*
X159429047Y-61234819D02*
X159143333Y-61234819D01*
X159143333Y-61234819D02*
X159048095Y-61187200D01*
X159048095Y-61187200D02*
X159000476Y-61139580D01*
X163494819Y-54008094D02*
X162494819Y-54008094D01*
X162494819Y-54008094D02*
X162494819Y-53769999D01*
X162494819Y-53769999D02*
X162542438Y-53627142D01*
X162542438Y-53627142D02*
X162637676Y-53531904D01*
X162637676Y-53531904D02*
X162732914Y-53484285D01*
X162732914Y-53484285D02*
X162923390Y-53436666D01*
X162923390Y-53436666D02*
X163066247Y-53436666D01*
X163066247Y-53436666D02*
X163256723Y-53484285D01*
X163256723Y-53484285D02*
X163351961Y-53531904D01*
X163351961Y-53531904D02*
X163447200Y-53627142D01*
X163447200Y-53627142D02*
X163494819Y-53769999D01*
X163494819Y-53769999D02*
X163494819Y-54008094D01*
X162494819Y-53103332D02*
X162494819Y-52484285D01*
X162494819Y-52484285D02*
X162875771Y-52817618D01*
X162875771Y-52817618D02*
X162875771Y-52674761D01*
X162875771Y-52674761D02*
X162923390Y-52579523D01*
X162923390Y-52579523D02*
X162971009Y-52531904D01*
X162971009Y-52531904D02*
X163066247Y-52484285D01*
X163066247Y-52484285D02*
X163304342Y-52484285D01*
X163304342Y-52484285D02*
X163399580Y-52531904D01*
X163399580Y-52531904D02*
X163447200Y-52579523D01*
X163447200Y-52579523D02*
X163494819Y-52674761D01*
X163494819Y-52674761D02*
X163494819Y-52960475D01*
X163494819Y-52960475D02*
X163447200Y-53055713D01*
X163447200Y-53055713D02*
X163399580Y-53103332D01*
X171238095Y-60234819D02*
X171238095Y-61044342D01*
X171238095Y-61044342D02*
X171285714Y-61139580D01*
X171285714Y-61139580D02*
X171333333Y-61187200D01*
X171333333Y-61187200D02*
X171428571Y-61234819D01*
X171428571Y-61234819D02*
X171619047Y-61234819D01*
X171619047Y-61234819D02*
X171714285Y-61187200D01*
X171714285Y-61187200D02*
X171761904Y-61139580D01*
X171761904Y-61139580D02*
X171809523Y-61044342D01*
X171809523Y-61044342D02*
X171809523Y-60234819D01*
X172714285Y-60568152D02*
X172714285Y-61234819D01*
X172476190Y-60187200D02*
X172238095Y-60901485D01*
X172238095Y-60901485D02*
X172857142Y-60901485D01*
X142609580Y-40166666D02*
X142657200Y-40214285D01*
X142657200Y-40214285D02*
X142704819Y-40357142D01*
X142704819Y-40357142D02*
X142704819Y-40452380D01*
X142704819Y-40452380D02*
X142657200Y-40595237D01*
X142657200Y-40595237D02*
X142561961Y-40690475D01*
X142561961Y-40690475D02*
X142466723Y-40738094D01*
X142466723Y-40738094D02*
X142276247Y-40785713D01*
X142276247Y-40785713D02*
X142133390Y-40785713D01*
X142133390Y-40785713D02*
X141942914Y-40738094D01*
X141942914Y-40738094D02*
X141847676Y-40690475D01*
X141847676Y-40690475D02*
X141752438Y-40595237D01*
X141752438Y-40595237D02*
X141704819Y-40452380D01*
X141704819Y-40452380D02*
X141704819Y-40357142D01*
X141704819Y-40357142D02*
X141752438Y-40214285D01*
X141752438Y-40214285D02*
X141800057Y-40166666D01*
X141800057Y-39785713D02*
X141752438Y-39738094D01*
X141752438Y-39738094D02*
X141704819Y-39642856D01*
X141704819Y-39642856D02*
X141704819Y-39404761D01*
X141704819Y-39404761D02*
X141752438Y-39309523D01*
X141752438Y-39309523D02*
X141800057Y-39261904D01*
X141800057Y-39261904D02*
X141895295Y-39214285D01*
X141895295Y-39214285D02*
X141990533Y-39214285D01*
X141990533Y-39214285D02*
X142133390Y-39261904D01*
X142133390Y-39261904D02*
X142704819Y-39833332D01*
X142704819Y-39833332D02*
X142704819Y-39214285D01*
X149624819Y-91642857D02*
X149148628Y-91976190D01*
X149624819Y-92214285D02*
X148624819Y-92214285D01*
X148624819Y-92214285D02*
X148624819Y-91833333D01*
X148624819Y-91833333D02*
X148672438Y-91738095D01*
X148672438Y-91738095D02*
X148720057Y-91690476D01*
X148720057Y-91690476D02*
X148815295Y-91642857D01*
X148815295Y-91642857D02*
X148958152Y-91642857D01*
X148958152Y-91642857D02*
X149053390Y-91690476D01*
X149053390Y-91690476D02*
X149101009Y-91738095D01*
X149101009Y-91738095D02*
X149148628Y-91833333D01*
X149148628Y-91833333D02*
X149148628Y-92214285D01*
X149624819Y-90690476D02*
X149624819Y-91261904D01*
X149624819Y-90976190D02*
X148624819Y-90976190D01*
X148624819Y-90976190D02*
X148767676Y-91071428D01*
X148767676Y-91071428D02*
X148862914Y-91166666D01*
X148862914Y-91166666D02*
X148910533Y-91261904D01*
X148624819Y-90357142D02*
X148624819Y-89738095D01*
X148624819Y-89738095D02*
X149005771Y-90071428D01*
X149005771Y-90071428D02*
X149005771Y-89928571D01*
X149005771Y-89928571D02*
X149053390Y-89833333D01*
X149053390Y-89833333D02*
X149101009Y-89785714D01*
X149101009Y-89785714D02*
X149196247Y-89738095D01*
X149196247Y-89738095D02*
X149434342Y-89738095D01*
X149434342Y-89738095D02*
X149529580Y-89785714D01*
X149529580Y-89785714D02*
X149577200Y-89833333D01*
X149577200Y-89833333D02*
X149624819Y-89928571D01*
X149624819Y-89928571D02*
X149624819Y-90214285D01*
X149624819Y-90214285D02*
X149577200Y-90309523D01*
X149577200Y-90309523D02*
X149529580Y-90357142D01*
X102952319Y-58833333D02*
X103666604Y-58833333D01*
X103666604Y-58833333D02*
X103809461Y-58880952D01*
X103809461Y-58880952D02*
X103904700Y-58976190D01*
X103904700Y-58976190D02*
X103952319Y-59119047D01*
X103952319Y-59119047D02*
X103952319Y-59214285D01*
X103952319Y-57833333D02*
X103952319Y-58404761D01*
X103952319Y-58119047D02*
X102952319Y-58119047D01*
X102952319Y-58119047D02*
X103095176Y-58214285D01*
X103095176Y-58214285D02*
X103190414Y-58309523D01*
X103190414Y-58309523D02*
X103238033Y-58404761D01*
X170624819Y-91642857D02*
X170148628Y-91976190D01*
X170624819Y-92214285D02*
X169624819Y-92214285D01*
X169624819Y-92214285D02*
X169624819Y-91833333D01*
X169624819Y-91833333D02*
X169672438Y-91738095D01*
X169672438Y-91738095D02*
X169720057Y-91690476D01*
X169720057Y-91690476D02*
X169815295Y-91642857D01*
X169815295Y-91642857D02*
X169958152Y-91642857D01*
X169958152Y-91642857D02*
X170053390Y-91690476D01*
X170053390Y-91690476D02*
X170101009Y-91738095D01*
X170101009Y-91738095D02*
X170148628Y-91833333D01*
X170148628Y-91833333D02*
X170148628Y-92214285D01*
X170624819Y-90690476D02*
X170624819Y-91261904D01*
X170624819Y-90976190D02*
X169624819Y-90976190D01*
X169624819Y-90976190D02*
X169767676Y-91071428D01*
X169767676Y-91071428D02*
X169862914Y-91166666D01*
X169862914Y-91166666D02*
X169910533Y-91261904D01*
X169720057Y-90309523D02*
X169672438Y-90261904D01*
X169672438Y-90261904D02*
X169624819Y-90166666D01*
X169624819Y-90166666D02*
X169624819Y-89928571D01*
X169624819Y-89928571D02*
X169672438Y-89833333D01*
X169672438Y-89833333D02*
X169720057Y-89785714D01*
X169720057Y-89785714D02*
X169815295Y-89738095D01*
X169815295Y-89738095D02*
X169910533Y-89738095D01*
X169910533Y-89738095D02*
X170053390Y-89785714D01*
X170053390Y-89785714D02*
X170624819Y-90357142D01*
X170624819Y-90357142D02*
X170624819Y-89738095D01*
X191238095Y-34004819D02*
X191238095Y-33004819D01*
X191238095Y-33481009D02*
X191809523Y-33481009D01*
X191809523Y-34004819D02*
X191809523Y-33004819D01*
X192238095Y-33100057D02*
X192285714Y-33052438D01*
X192285714Y-33052438D02*
X192380952Y-33004819D01*
X192380952Y-33004819D02*
X192619047Y-33004819D01*
X192619047Y-33004819D02*
X192714285Y-33052438D01*
X192714285Y-33052438D02*
X192761904Y-33100057D01*
X192761904Y-33100057D02*
X192809523Y-33195295D01*
X192809523Y-33195295D02*
X192809523Y-33290533D01*
X192809523Y-33290533D02*
X192761904Y-33433390D01*
X192761904Y-33433390D02*
X192190476Y-34004819D01*
X192190476Y-34004819D02*
X192809523Y-34004819D01*
X113243095Y-71814819D02*
X113243095Y-72624342D01*
X113243095Y-72624342D02*
X113290714Y-72719580D01*
X113290714Y-72719580D02*
X113338333Y-72767200D01*
X113338333Y-72767200D02*
X113433571Y-72814819D01*
X113433571Y-72814819D02*
X113624047Y-72814819D01*
X113624047Y-72814819D02*
X113719285Y-72767200D01*
X113719285Y-72767200D02*
X113766904Y-72719580D01*
X113766904Y-72719580D02*
X113814523Y-72624342D01*
X113814523Y-72624342D02*
X113814523Y-71814819D01*
X114195476Y-71814819D02*
X114862142Y-71814819D01*
X114862142Y-71814819D02*
X114433571Y-72814819D01*
X154084819Y-39166666D02*
X153608628Y-39499999D01*
X154084819Y-39738094D02*
X153084819Y-39738094D01*
X153084819Y-39738094D02*
X153084819Y-39357142D01*
X153084819Y-39357142D02*
X153132438Y-39261904D01*
X153132438Y-39261904D02*
X153180057Y-39214285D01*
X153180057Y-39214285D02*
X153275295Y-39166666D01*
X153275295Y-39166666D02*
X153418152Y-39166666D01*
X153418152Y-39166666D02*
X153513390Y-39214285D01*
X153513390Y-39214285D02*
X153561009Y-39261904D01*
X153561009Y-39261904D02*
X153608628Y-39357142D01*
X153608628Y-39357142D02*
X153608628Y-39738094D01*
X154084819Y-38214285D02*
X154084819Y-38785713D01*
X154084819Y-38499999D02*
X153084819Y-38499999D01*
X153084819Y-38499999D02*
X153227676Y-38595237D01*
X153227676Y-38595237D02*
X153322914Y-38690475D01*
X153322914Y-38690475D02*
X153370533Y-38785713D01*
X194310595Y-64278319D02*
X194310595Y-65087842D01*
X194310595Y-65087842D02*
X194358214Y-65183080D01*
X194358214Y-65183080D02*
X194405833Y-65230700D01*
X194405833Y-65230700D02*
X194501071Y-65278319D01*
X194501071Y-65278319D02*
X194691547Y-65278319D01*
X194691547Y-65278319D02*
X194786785Y-65230700D01*
X194786785Y-65230700D02*
X194834404Y-65183080D01*
X194834404Y-65183080D02*
X194882023Y-65087842D01*
X194882023Y-65087842D02*
X194882023Y-64278319D01*
X195834404Y-64278319D02*
X195358214Y-64278319D01*
X195358214Y-64278319D02*
X195310595Y-64754509D01*
X195310595Y-64754509D02*
X195358214Y-64706890D01*
X195358214Y-64706890D02*
X195453452Y-64659271D01*
X195453452Y-64659271D02*
X195691547Y-64659271D01*
X195691547Y-64659271D02*
X195786785Y-64706890D01*
X195786785Y-64706890D02*
X195834404Y-64754509D01*
X195834404Y-64754509D02*
X195882023Y-64849747D01*
X195882023Y-64849747D02*
X195882023Y-65087842D01*
X195882023Y-65087842D02*
X195834404Y-65183080D01*
X195834404Y-65183080D02*
X195786785Y-65230700D01*
X195786785Y-65230700D02*
X195691547Y-65278319D01*
X195691547Y-65278319D02*
X195453452Y-65278319D01*
X195453452Y-65278319D02*
X195358214Y-65230700D01*
X195358214Y-65230700D02*
X195310595Y-65183080D01*
X109238095Y-94004819D02*
X109238095Y-93004819D01*
X109238095Y-93481009D02*
X109809523Y-93481009D01*
X109809523Y-94004819D02*
X109809523Y-93004819D01*
X110190476Y-93004819D02*
X110809523Y-93004819D01*
X110809523Y-93004819D02*
X110476190Y-93385771D01*
X110476190Y-93385771D02*
X110619047Y-93385771D01*
X110619047Y-93385771D02*
X110714285Y-93433390D01*
X110714285Y-93433390D02*
X110761904Y-93481009D01*
X110761904Y-93481009D02*
X110809523Y-93576247D01*
X110809523Y-93576247D02*
X110809523Y-93814342D01*
X110809523Y-93814342D02*
X110761904Y-93909580D01*
X110761904Y-93909580D02*
X110714285Y-93957200D01*
X110714285Y-93957200D02*
X110619047Y-94004819D01*
X110619047Y-94004819D02*
X110333333Y-94004819D01*
X110333333Y-94004819D02*
X110238095Y-93957200D01*
X110238095Y-93957200D02*
X110190476Y-93909580D01*
X181333333Y-76954819D02*
X181000000Y-76478628D01*
X180761905Y-76954819D02*
X180761905Y-75954819D01*
X180761905Y-75954819D02*
X181142857Y-75954819D01*
X181142857Y-75954819D02*
X181238095Y-76002438D01*
X181238095Y-76002438D02*
X181285714Y-76050057D01*
X181285714Y-76050057D02*
X181333333Y-76145295D01*
X181333333Y-76145295D02*
X181333333Y-76288152D01*
X181333333Y-76288152D02*
X181285714Y-76383390D01*
X181285714Y-76383390D02*
X181238095Y-76431009D01*
X181238095Y-76431009D02*
X181142857Y-76478628D01*
X181142857Y-76478628D02*
X180761905Y-76478628D01*
X182238095Y-75954819D02*
X181761905Y-75954819D01*
X181761905Y-75954819D02*
X181714286Y-76431009D01*
X181714286Y-76431009D02*
X181761905Y-76383390D01*
X181761905Y-76383390D02*
X181857143Y-76335771D01*
X181857143Y-76335771D02*
X182095238Y-76335771D01*
X182095238Y-76335771D02*
X182190476Y-76383390D01*
X182190476Y-76383390D02*
X182238095Y-76431009D01*
X182238095Y-76431009D02*
X182285714Y-76526247D01*
X182285714Y-76526247D02*
X182285714Y-76764342D01*
X182285714Y-76764342D02*
X182238095Y-76859580D01*
X182238095Y-76859580D02*
X182190476Y-76907200D01*
X182190476Y-76907200D02*
X182095238Y-76954819D01*
X182095238Y-76954819D02*
X181857143Y-76954819D01*
X181857143Y-76954819D02*
X181761905Y-76907200D01*
X181761905Y-76907200D02*
X181714286Y-76859580D01*
X147494819Y-54008094D02*
X146494819Y-54008094D01*
X146494819Y-54008094D02*
X146494819Y-53769999D01*
X146494819Y-53769999D02*
X146542438Y-53627142D01*
X146542438Y-53627142D02*
X146637676Y-53531904D01*
X146637676Y-53531904D02*
X146732914Y-53484285D01*
X146732914Y-53484285D02*
X146923390Y-53436666D01*
X146923390Y-53436666D02*
X147066247Y-53436666D01*
X147066247Y-53436666D02*
X147256723Y-53484285D01*
X147256723Y-53484285D02*
X147351961Y-53531904D01*
X147351961Y-53531904D02*
X147447200Y-53627142D01*
X147447200Y-53627142D02*
X147494819Y-53769999D01*
X147494819Y-53769999D02*
X147494819Y-54008094D01*
X147494819Y-52484285D02*
X147494819Y-53055713D01*
X147494819Y-52769999D02*
X146494819Y-52769999D01*
X146494819Y-52769999D02*
X146637676Y-52865237D01*
X146637676Y-52865237D02*
X146732914Y-52960475D01*
X146732914Y-52960475D02*
X146780533Y-53055713D01*
X180357142Y-65454819D02*
X180023809Y-64978628D01*
X179785714Y-65454819D02*
X179785714Y-64454819D01*
X179785714Y-64454819D02*
X180166666Y-64454819D01*
X180166666Y-64454819D02*
X180261904Y-64502438D01*
X180261904Y-64502438D02*
X180309523Y-64550057D01*
X180309523Y-64550057D02*
X180357142Y-64645295D01*
X180357142Y-64645295D02*
X180357142Y-64788152D01*
X180357142Y-64788152D02*
X180309523Y-64883390D01*
X180309523Y-64883390D02*
X180261904Y-64931009D01*
X180261904Y-64931009D02*
X180166666Y-64978628D01*
X180166666Y-64978628D02*
X179785714Y-64978628D01*
X181309523Y-65454819D02*
X180738095Y-65454819D01*
X181023809Y-65454819D02*
X181023809Y-64454819D01*
X181023809Y-64454819D02*
X180928571Y-64597676D01*
X180928571Y-64597676D02*
X180833333Y-64692914D01*
X180833333Y-64692914D02*
X180738095Y-64740533D01*
X181642857Y-64454819D02*
X182309523Y-64454819D01*
X182309523Y-64454819D02*
X181880952Y-65454819D01*
X104624819Y-75642857D02*
X104148628Y-75976190D01*
X104624819Y-76214285D02*
X103624819Y-76214285D01*
X103624819Y-76214285D02*
X103624819Y-75833333D01*
X103624819Y-75833333D02*
X103672438Y-75738095D01*
X103672438Y-75738095D02*
X103720057Y-75690476D01*
X103720057Y-75690476D02*
X103815295Y-75642857D01*
X103815295Y-75642857D02*
X103958152Y-75642857D01*
X103958152Y-75642857D02*
X104053390Y-75690476D01*
X104053390Y-75690476D02*
X104101009Y-75738095D01*
X104101009Y-75738095D02*
X104148628Y-75833333D01*
X104148628Y-75833333D02*
X104148628Y-76214285D01*
X103720057Y-75261904D02*
X103672438Y-75214285D01*
X103672438Y-75214285D02*
X103624819Y-75119047D01*
X103624819Y-75119047D02*
X103624819Y-74880952D01*
X103624819Y-74880952D02*
X103672438Y-74785714D01*
X103672438Y-74785714D02*
X103720057Y-74738095D01*
X103720057Y-74738095D02*
X103815295Y-74690476D01*
X103815295Y-74690476D02*
X103910533Y-74690476D01*
X103910533Y-74690476D02*
X104053390Y-74738095D01*
X104053390Y-74738095D02*
X104624819Y-75309523D01*
X104624819Y-75309523D02*
X104624819Y-74690476D01*
X103624819Y-74071428D02*
X103624819Y-73976190D01*
X103624819Y-73976190D02*
X103672438Y-73880952D01*
X103672438Y-73880952D02*
X103720057Y-73833333D01*
X103720057Y-73833333D02*
X103815295Y-73785714D01*
X103815295Y-73785714D02*
X104005771Y-73738095D01*
X104005771Y-73738095D02*
X104243866Y-73738095D01*
X104243866Y-73738095D02*
X104434342Y-73785714D01*
X104434342Y-73785714D02*
X104529580Y-73833333D01*
X104529580Y-73833333D02*
X104577200Y-73880952D01*
X104577200Y-73880952D02*
X104624819Y-73976190D01*
X104624819Y-73976190D02*
X104624819Y-74071428D01*
X104624819Y-74071428D02*
X104577200Y-74166666D01*
X104577200Y-74166666D02*
X104529580Y-74214285D01*
X104529580Y-74214285D02*
X104434342Y-74261904D01*
X104434342Y-74261904D02*
X104243866Y-74309523D01*
X104243866Y-74309523D02*
X104005771Y-74309523D01*
X104005771Y-74309523D02*
X103815295Y-74261904D01*
X103815295Y-74261904D02*
X103720057Y-74214285D01*
X103720057Y-74214285D02*
X103672438Y-74166666D01*
X103672438Y-74166666D02*
X103624819Y-74071428D01*
X166624819Y-91642857D02*
X166148628Y-91976190D01*
X166624819Y-92214285D02*
X165624819Y-92214285D01*
X165624819Y-92214285D02*
X165624819Y-91833333D01*
X165624819Y-91833333D02*
X165672438Y-91738095D01*
X165672438Y-91738095D02*
X165720057Y-91690476D01*
X165720057Y-91690476D02*
X165815295Y-91642857D01*
X165815295Y-91642857D02*
X165958152Y-91642857D01*
X165958152Y-91642857D02*
X166053390Y-91690476D01*
X166053390Y-91690476D02*
X166101009Y-91738095D01*
X166101009Y-91738095D02*
X166148628Y-91833333D01*
X166148628Y-91833333D02*
X166148628Y-92214285D01*
X166624819Y-90690476D02*
X166624819Y-91261904D01*
X166624819Y-90976190D02*
X165624819Y-90976190D01*
X165624819Y-90976190D02*
X165767676Y-91071428D01*
X165767676Y-91071428D02*
X165862914Y-91166666D01*
X165862914Y-91166666D02*
X165910533Y-91261904D01*
X166624819Y-89738095D02*
X166624819Y-90309523D01*
X166624819Y-90023809D02*
X165624819Y-90023809D01*
X165624819Y-90023809D02*
X165767676Y-90119047D01*
X165767676Y-90119047D02*
X165862914Y-90214285D01*
X165862914Y-90214285D02*
X165910533Y-90309523D01*
X116609580Y-40166666D02*
X116657200Y-40214285D01*
X116657200Y-40214285D02*
X116704819Y-40357142D01*
X116704819Y-40357142D02*
X116704819Y-40452380D01*
X116704819Y-40452380D02*
X116657200Y-40595237D01*
X116657200Y-40595237D02*
X116561961Y-40690475D01*
X116561961Y-40690475D02*
X116466723Y-40738094D01*
X116466723Y-40738094D02*
X116276247Y-40785713D01*
X116276247Y-40785713D02*
X116133390Y-40785713D01*
X116133390Y-40785713D02*
X115942914Y-40738094D01*
X115942914Y-40738094D02*
X115847676Y-40690475D01*
X115847676Y-40690475D02*
X115752438Y-40595237D01*
X115752438Y-40595237D02*
X115704819Y-40452380D01*
X115704819Y-40452380D02*
X115704819Y-40357142D01*
X115704819Y-40357142D02*
X115752438Y-40214285D01*
X115752438Y-40214285D02*
X115800057Y-40166666D01*
X116704819Y-39214285D02*
X116704819Y-39785713D01*
X116704819Y-39499999D02*
X115704819Y-39499999D01*
X115704819Y-39499999D02*
X115847676Y-39595237D01*
X115847676Y-39595237D02*
X115942914Y-39690475D01*
X115942914Y-39690475D02*
X115990533Y-39785713D01*
X155494819Y-54008094D02*
X154494819Y-54008094D01*
X154494819Y-54008094D02*
X154494819Y-53769999D01*
X154494819Y-53769999D02*
X154542438Y-53627142D01*
X154542438Y-53627142D02*
X154637676Y-53531904D01*
X154637676Y-53531904D02*
X154732914Y-53484285D01*
X154732914Y-53484285D02*
X154923390Y-53436666D01*
X154923390Y-53436666D02*
X155066247Y-53436666D01*
X155066247Y-53436666D02*
X155256723Y-53484285D01*
X155256723Y-53484285D02*
X155351961Y-53531904D01*
X155351961Y-53531904D02*
X155447200Y-53627142D01*
X155447200Y-53627142D02*
X155494819Y-53769999D01*
X155494819Y-53769999D02*
X155494819Y-54008094D01*
X154590057Y-53055713D02*
X154542438Y-53008094D01*
X154542438Y-53008094D02*
X154494819Y-52912856D01*
X154494819Y-52912856D02*
X154494819Y-52674761D01*
X154494819Y-52674761D02*
X154542438Y-52579523D01*
X154542438Y-52579523D02*
X154590057Y-52531904D01*
X154590057Y-52531904D02*
X154685295Y-52484285D01*
X154685295Y-52484285D02*
X154780533Y-52484285D01*
X154780533Y-52484285D02*
X154923390Y-52531904D01*
X154923390Y-52531904D02*
X155494819Y-53103332D01*
X155494819Y-53103332D02*
X155494819Y-52484285D01*
X179857142Y-71954819D02*
X179523809Y-71478628D01*
X179285714Y-71954819D02*
X179285714Y-70954819D01*
X179285714Y-70954819D02*
X179666666Y-70954819D01*
X179666666Y-70954819D02*
X179761904Y-71002438D01*
X179761904Y-71002438D02*
X179809523Y-71050057D01*
X179809523Y-71050057D02*
X179857142Y-71145295D01*
X179857142Y-71145295D02*
X179857142Y-71288152D01*
X179857142Y-71288152D02*
X179809523Y-71383390D01*
X179809523Y-71383390D02*
X179761904Y-71431009D01*
X179761904Y-71431009D02*
X179666666Y-71478628D01*
X179666666Y-71478628D02*
X179285714Y-71478628D01*
X180809523Y-71954819D02*
X180238095Y-71954819D01*
X180523809Y-71954819D02*
X180523809Y-70954819D01*
X180523809Y-70954819D02*
X180428571Y-71097676D01*
X180428571Y-71097676D02*
X180333333Y-71192914D01*
X180333333Y-71192914D02*
X180238095Y-71240533D01*
X181666666Y-70954819D02*
X181476190Y-70954819D01*
X181476190Y-70954819D02*
X181380952Y-71002438D01*
X181380952Y-71002438D02*
X181333333Y-71050057D01*
X181333333Y-71050057D02*
X181238095Y-71192914D01*
X181238095Y-71192914D02*
X181190476Y-71383390D01*
X181190476Y-71383390D02*
X181190476Y-71764342D01*
X181190476Y-71764342D02*
X181238095Y-71859580D01*
X181238095Y-71859580D02*
X181285714Y-71907200D01*
X181285714Y-71907200D02*
X181380952Y-71954819D01*
X181380952Y-71954819D02*
X181571428Y-71954819D01*
X181571428Y-71954819D02*
X181666666Y-71907200D01*
X181666666Y-71907200D02*
X181714285Y-71859580D01*
X181714285Y-71859580D02*
X181761904Y-71764342D01*
X181761904Y-71764342D02*
X181761904Y-71526247D01*
X181761904Y-71526247D02*
X181714285Y-71431009D01*
X181714285Y-71431009D02*
X181666666Y-71383390D01*
X181666666Y-71383390D02*
X181571428Y-71335771D01*
X181571428Y-71335771D02*
X181380952Y-71335771D01*
X181380952Y-71335771D02*
X181285714Y-71383390D01*
X181285714Y-71383390D02*
X181238095Y-71431009D01*
X181238095Y-71431009D02*
X181190476Y-71526247D01*
X164084819Y-39166666D02*
X163608628Y-39499999D01*
X164084819Y-39738094D02*
X163084819Y-39738094D01*
X163084819Y-39738094D02*
X163084819Y-39357142D01*
X163084819Y-39357142D02*
X163132438Y-39261904D01*
X163132438Y-39261904D02*
X163180057Y-39214285D01*
X163180057Y-39214285D02*
X163275295Y-39166666D01*
X163275295Y-39166666D02*
X163418152Y-39166666D01*
X163418152Y-39166666D02*
X163513390Y-39214285D01*
X163513390Y-39214285D02*
X163561009Y-39261904D01*
X163561009Y-39261904D02*
X163608628Y-39357142D01*
X163608628Y-39357142D02*
X163608628Y-39738094D01*
X163084819Y-38833332D02*
X163084819Y-38214285D01*
X163084819Y-38214285D02*
X163465771Y-38547618D01*
X163465771Y-38547618D02*
X163465771Y-38404761D01*
X163465771Y-38404761D02*
X163513390Y-38309523D01*
X163513390Y-38309523D02*
X163561009Y-38261904D01*
X163561009Y-38261904D02*
X163656247Y-38214285D01*
X163656247Y-38214285D02*
X163894342Y-38214285D01*
X163894342Y-38214285D02*
X163989580Y-38261904D01*
X163989580Y-38261904D02*
X164037200Y-38309523D01*
X164037200Y-38309523D02*
X164084819Y-38404761D01*
X164084819Y-38404761D02*
X164084819Y-38690475D01*
X164084819Y-38690475D02*
X164037200Y-38785713D01*
X164037200Y-38785713D02*
X163989580Y-38833332D01*
X153666667Y-99157200D02*
X153809524Y-99204819D01*
X153809524Y-99204819D02*
X154047619Y-99204819D01*
X154047619Y-99204819D02*
X154142857Y-99157200D01*
X154142857Y-99157200D02*
X154190476Y-99109580D01*
X154190476Y-99109580D02*
X154238095Y-99014342D01*
X154238095Y-99014342D02*
X154238095Y-98919104D01*
X154238095Y-98919104D02*
X154190476Y-98823866D01*
X154190476Y-98823866D02*
X154142857Y-98776247D01*
X154142857Y-98776247D02*
X154047619Y-98728628D01*
X154047619Y-98728628D02*
X153857143Y-98681009D01*
X153857143Y-98681009D02*
X153761905Y-98633390D01*
X153761905Y-98633390D02*
X153714286Y-98585771D01*
X153714286Y-98585771D02*
X153666667Y-98490533D01*
X153666667Y-98490533D02*
X153666667Y-98395295D01*
X153666667Y-98395295D02*
X153714286Y-98300057D01*
X153714286Y-98300057D02*
X153761905Y-98252438D01*
X153761905Y-98252438D02*
X153857143Y-98204819D01*
X153857143Y-98204819D02*
X154095238Y-98204819D01*
X154095238Y-98204819D02*
X154238095Y-98252438D01*
X154571429Y-98204819D02*
X154809524Y-99204819D01*
X154809524Y-99204819D02*
X155000000Y-98490533D01*
X155000000Y-98490533D02*
X155190476Y-99204819D01*
X155190476Y-99204819D02*
X155428572Y-98204819D01*
X156333333Y-99204819D02*
X155761905Y-99204819D01*
X156047619Y-99204819D02*
X156047619Y-98204819D01*
X156047619Y-98204819D02*
X155952381Y-98347676D01*
X155952381Y-98347676D02*
X155857143Y-98442914D01*
X155857143Y-98442914D02*
X155761905Y-98490533D01*
X121009580Y-80166666D02*
X121057200Y-80214285D01*
X121057200Y-80214285D02*
X121104819Y-80357142D01*
X121104819Y-80357142D02*
X121104819Y-80452380D01*
X121104819Y-80452380D02*
X121057200Y-80595237D01*
X121057200Y-80595237D02*
X120961961Y-80690475D01*
X120961961Y-80690475D02*
X120866723Y-80738094D01*
X120866723Y-80738094D02*
X120676247Y-80785713D01*
X120676247Y-80785713D02*
X120533390Y-80785713D01*
X120533390Y-80785713D02*
X120342914Y-80738094D01*
X120342914Y-80738094D02*
X120247676Y-80690475D01*
X120247676Y-80690475D02*
X120152438Y-80595237D01*
X120152438Y-80595237D02*
X120104819Y-80452380D01*
X120104819Y-80452380D02*
X120104819Y-80357142D01*
X120104819Y-80357142D02*
X120152438Y-80214285D01*
X120152438Y-80214285D02*
X120200057Y-80166666D01*
X120104819Y-79261904D02*
X120104819Y-79738094D01*
X120104819Y-79738094D02*
X120581009Y-79785713D01*
X120581009Y-79785713D02*
X120533390Y-79738094D01*
X120533390Y-79738094D02*
X120485771Y-79642856D01*
X120485771Y-79642856D02*
X120485771Y-79404761D01*
X120485771Y-79404761D02*
X120533390Y-79309523D01*
X120533390Y-79309523D02*
X120581009Y-79261904D01*
X120581009Y-79261904D02*
X120676247Y-79214285D01*
X120676247Y-79214285D02*
X120914342Y-79214285D01*
X120914342Y-79214285D02*
X121009580Y-79261904D01*
X121009580Y-79261904D02*
X121057200Y-79309523D01*
X121057200Y-79309523D02*
X121104819Y-79404761D01*
X121104819Y-79404761D02*
X121104819Y-79642856D01*
X121104819Y-79642856D02*
X121057200Y-79738094D01*
X121057200Y-79738094D02*
X121009580Y-79785713D01*
X159084819Y-39166666D02*
X158608628Y-39499999D01*
X159084819Y-39738094D02*
X158084819Y-39738094D01*
X158084819Y-39738094D02*
X158084819Y-39357142D01*
X158084819Y-39357142D02*
X158132438Y-39261904D01*
X158132438Y-39261904D02*
X158180057Y-39214285D01*
X158180057Y-39214285D02*
X158275295Y-39166666D01*
X158275295Y-39166666D02*
X158418152Y-39166666D01*
X158418152Y-39166666D02*
X158513390Y-39214285D01*
X158513390Y-39214285D02*
X158561009Y-39261904D01*
X158561009Y-39261904D02*
X158608628Y-39357142D01*
X158608628Y-39357142D02*
X158608628Y-39738094D01*
X158180057Y-38785713D02*
X158132438Y-38738094D01*
X158132438Y-38738094D02*
X158084819Y-38642856D01*
X158084819Y-38642856D02*
X158084819Y-38404761D01*
X158084819Y-38404761D02*
X158132438Y-38309523D01*
X158132438Y-38309523D02*
X158180057Y-38261904D01*
X158180057Y-38261904D02*
X158275295Y-38214285D01*
X158275295Y-38214285D02*
X158370533Y-38214285D01*
X158370533Y-38214285D02*
X158513390Y-38261904D01*
X158513390Y-38261904D02*
X159084819Y-38833332D01*
X159084819Y-38833332D02*
X159084819Y-38214285D01*
X142333333Y-46604819D02*
X141857143Y-46604819D01*
X141857143Y-46604819D02*
X141857143Y-45604819D01*
X143190476Y-46604819D02*
X142619048Y-46604819D01*
X142904762Y-46604819D02*
X142904762Y-45604819D01*
X142904762Y-45604819D02*
X142809524Y-45747676D01*
X142809524Y-45747676D02*
X142714286Y-45842914D01*
X142714286Y-45842914D02*
X142619048Y-45890533D01*
X143378221Y-88109580D02*
X143330602Y-88157200D01*
X143330602Y-88157200D02*
X143187745Y-88204819D01*
X143187745Y-88204819D02*
X143092507Y-88204819D01*
X143092507Y-88204819D02*
X142949650Y-88157200D01*
X142949650Y-88157200D02*
X142854412Y-88061961D01*
X142854412Y-88061961D02*
X142806793Y-87966723D01*
X142806793Y-87966723D02*
X142759174Y-87776247D01*
X142759174Y-87776247D02*
X142759174Y-87633390D01*
X142759174Y-87633390D02*
X142806793Y-87442914D01*
X142806793Y-87442914D02*
X142854412Y-87347676D01*
X142854412Y-87347676D02*
X142949650Y-87252438D01*
X142949650Y-87252438D02*
X143092507Y-87204819D01*
X143092507Y-87204819D02*
X143187745Y-87204819D01*
X143187745Y-87204819D02*
X143330602Y-87252438D01*
X143330602Y-87252438D02*
X143378221Y-87300057D01*
X143711555Y-87204819D02*
X144330602Y-87204819D01*
X144330602Y-87204819D02*
X143997269Y-87585771D01*
X143997269Y-87585771D02*
X144140126Y-87585771D01*
X144140126Y-87585771D02*
X144235364Y-87633390D01*
X144235364Y-87633390D02*
X144282983Y-87681009D01*
X144282983Y-87681009D02*
X144330602Y-87776247D01*
X144330602Y-87776247D02*
X144330602Y-88014342D01*
X144330602Y-88014342D02*
X144282983Y-88109580D01*
X144282983Y-88109580D02*
X144235364Y-88157200D01*
X144235364Y-88157200D02*
X144140126Y-88204819D01*
X144140126Y-88204819D02*
X143854412Y-88204819D01*
X143854412Y-88204819D02*
X143759174Y-88157200D01*
X143759174Y-88157200D02*
X143711555Y-88109580D01*
X172494819Y-54008094D02*
X171494819Y-54008094D01*
X171494819Y-54008094D02*
X171494819Y-53769999D01*
X171494819Y-53769999D02*
X171542438Y-53627142D01*
X171542438Y-53627142D02*
X171637676Y-53531904D01*
X171637676Y-53531904D02*
X171732914Y-53484285D01*
X171732914Y-53484285D02*
X171923390Y-53436666D01*
X171923390Y-53436666D02*
X172066247Y-53436666D01*
X172066247Y-53436666D02*
X172256723Y-53484285D01*
X172256723Y-53484285D02*
X172351961Y-53531904D01*
X172351961Y-53531904D02*
X172447200Y-53627142D01*
X172447200Y-53627142D02*
X172494819Y-53769999D01*
X172494819Y-53769999D02*
X172494819Y-54008094D01*
X171494819Y-52531904D02*
X171494819Y-53008094D01*
X171494819Y-53008094D02*
X171971009Y-53055713D01*
X171971009Y-53055713D02*
X171923390Y-53008094D01*
X171923390Y-53008094D02*
X171875771Y-52912856D01*
X171875771Y-52912856D02*
X171875771Y-52674761D01*
X171875771Y-52674761D02*
X171923390Y-52579523D01*
X171923390Y-52579523D02*
X171971009Y-52531904D01*
X171971009Y-52531904D02*
X172066247Y-52484285D01*
X172066247Y-52484285D02*
X172304342Y-52484285D01*
X172304342Y-52484285D02*
X172399580Y-52531904D01*
X172399580Y-52531904D02*
X172447200Y-52579523D01*
X172447200Y-52579523D02*
X172494819Y-52674761D01*
X172494819Y-52674761D02*
X172494819Y-52912856D01*
X172494819Y-52912856D02*
X172447200Y-53008094D01*
X172447200Y-53008094D02*
X172399580Y-53055713D01*
X109238095Y-34004819D02*
X109238095Y-33004819D01*
X109238095Y-33481009D02*
X109809523Y-33481009D01*
X109809523Y-34004819D02*
X109809523Y-33004819D01*
X110809523Y-34004819D02*
X110238095Y-34004819D01*
X110523809Y-34004819D02*
X110523809Y-33004819D01*
X110523809Y-33004819D02*
X110428571Y-33147676D01*
X110428571Y-33147676D02*
X110333333Y-33242914D01*
X110333333Y-33242914D02*
X110238095Y-33290533D01*
X181333333Y-84454819D02*
X181000000Y-83978628D01*
X180761905Y-84454819D02*
X180761905Y-83454819D01*
X180761905Y-83454819D02*
X181142857Y-83454819D01*
X181142857Y-83454819D02*
X181238095Y-83502438D01*
X181238095Y-83502438D02*
X181285714Y-83550057D01*
X181285714Y-83550057D02*
X181333333Y-83645295D01*
X181333333Y-83645295D02*
X181333333Y-83788152D01*
X181333333Y-83788152D02*
X181285714Y-83883390D01*
X181285714Y-83883390D02*
X181238095Y-83931009D01*
X181238095Y-83931009D02*
X181142857Y-83978628D01*
X181142857Y-83978628D02*
X180761905Y-83978628D01*
X181904762Y-83883390D02*
X181809524Y-83835771D01*
X181809524Y-83835771D02*
X181761905Y-83788152D01*
X181761905Y-83788152D02*
X181714286Y-83692914D01*
X181714286Y-83692914D02*
X181714286Y-83645295D01*
X181714286Y-83645295D02*
X181761905Y-83550057D01*
X181761905Y-83550057D02*
X181809524Y-83502438D01*
X181809524Y-83502438D02*
X181904762Y-83454819D01*
X181904762Y-83454819D02*
X182095238Y-83454819D01*
X182095238Y-83454819D02*
X182190476Y-83502438D01*
X182190476Y-83502438D02*
X182238095Y-83550057D01*
X182238095Y-83550057D02*
X182285714Y-83645295D01*
X182285714Y-83645295D02*
X182285714Y-83692914D01*
X182285714Y-83692914D02*
X182238095Y-83788152D01*
X182238095Y-83788152D02*
X182190476Y-83835771D01*
X182190476Y-83835771D02*
X182095238Y-83883390D01*
X182095238Y-83883390D02*
X181904762Y-83883390D01*
X181904762Y-83883390D02*
X181809524Y-83931009D01*
X181809524Y-83931009D02*
X181761905Y-83978628D01*
X181761905Y-83978628D02*
X181714286Y-84073866D01*
X181714286Y-84073866D02*
X181714286Y-84264342D01*
X181714286Y-84264342D02*
X181761905Y-84359580D01*
X181761905Y-84359580D02*
X181809524Y-84407200D01*
X181809524Y-84407200D02*
X181904762Y-84454819D01*
X181904762Y-84454819D02*
X182095238Y-84454819D01*
X182095238Y-84454819D02*
X182190476Y-84407200D01*
X182190476Y-84407200D02*
X182238095Y-84359580D01*
X182238095Y-84359580D02*
X182285714Y-84264342D01*
X182285714Y-84264342D02*
X182285714Y-84073866D01*
X182285714Y-84073866D02*
X182238095Y-83978628D01*
X182238095Y-83978628D02*
X182190476Y-83931009D01*
X182190476Y-83931009D02*
X182095238Y-83883390D01*
X104624819Y-82142857D02*
X104148628Y-82476190D01*
X104624819Y-82714285D02*
X103624819Y-82714285D01*
X103624819Y-82714285D02*
X103624819Y-82333333D01*
X103624819Y-82333333D02*
X103672438Y-82238095D01*
X103672438Y-82238095D02*
X103720057Y-82190476D01*
X103720057Y-82190476D02*
X103815295Y-82142857D01*
X103815295Y-82142857D02*
X103958152Y-82142857D01*
X103958152Y-82142857D02*
X104053390Y-82190476D01*
X104053390Y-82190476D02*
X104101009Y-82238095D01*
X104101009Y-82238095D02*
X104148628Y-82333333D01*
X104148628Y-82333333D02*
X104148628Y-82714285D01*
X104624819Y-81190476D02*
X104624819Y-81761904D01*
X104624819Y-81476190D02*
X103624819Y-81476190D01*
X103624819Y-81476190D02*
X103767676Y-81571428D01*
X103767676Y-81571428D02*
X103862914Y-81666666D01*
X103862914Y-81666666D02*
X103910533Y-81761904D01*
X104624819Y-80714285D02*
X104624819Y-80523809D01*
X104624819Y-80523809D02*
X104577200Y-80428571D01*
X104577200Y-80428571D02*
X104529580Y-80380952D01*
X104529580Y-80380952D02*
X104386723Y-80285714D01*
X104386723Y-80285714D02*
X104196247Y-80238095D01*
X104196247Y-80238095D02*
X103815295Y-80238095D01*
X103815295Y-80238095D02*
X103720057Y-80285714D01*
X103720057Y-80285714D02*
X103672438Y-80333333D01*
X103672438Y-80333333D02*
X103624819Y-80428571D01*
X103624819Y-80428571D02*
X103624819Y-80619047D01*
X103624819Y-80619047D02*
X103672438Y-80714285D01*
X103672438Y-80714285D02*
X103720057Y-80761904D01*
X103720057Y-80761904D02*
X103815295Y-80809523D01*
X103815295Y-80809523D02*
X104053390Y-80809523D01*
X104053390Y-80809523D02*
X104148628Y-80761904D01*
X104148628Y-80761904D02*
X104196247Y-80714285D01*
X104196247Y-80714285D02*
X104243866Y-80619047D01*
X104243866Y-80619047D02*
X104243866Y-80428571D01*
X104243866Y-80428571D02*
X104196247Y-80333333D01*
X104196247Y-80333333D02*
X104148628Y-80285714D01*
X104148628Y-80285714D02*
X104053390Y-80238095D01*
X179857142Y-62454819D02*
X179523809Y-61978628D01*
X179285714Y-62454819D02*
X179285714Y-61454819D01*
X179285714Y-61454819D02*
X179666666Y-61454819D01*
X179666666Y-61454819D02*
X179761904Y-61502438D01*
X179761904Y-61502438D02*
X179809523Y-61550057D01*
X179809523Y-61550057D02*
X179857142Y-61645295D01*
X179857142Y-61645295D02*
X179857142Y-61788152D01*
X179857142Y-61788152D02*
X179809523Y-61883390D01*
X179809523Y-61883390D02*
X179761904Y-61931009D01*
X179761904Y-61931009D02*
X179666666Y-61978628D01*
X179666666Y-61978628D02*
X179285714Y-61978628D01*
X180809523Y-62454819D02*
X180238095Y-62454819D01*
X180523809Y-62454819D02*
X180523809Y-61454819D01*
X180523809Y-61454819D02*
X180428571Y-61597676D01*
X180428571Y-61597676D02*
X180333333Y-61692914D01*
X180333333Y-61692914D02*
X180238095Y-61740533D01*
X181714285Y-61454819D02*
X181238095Y-61454819D01*
X181238095Y-61454819D02*
X181190476Y-61931009D01*
X181190476Y-61931009D02*
X181238095Y-61883390D01*
X181238095Y-61883390D02*
X181333333Y-61835771D01*
X181333333Y-61835771D02*
X181571428Y-61835771D01*
X181571428Y-61835771D02*
X181666666Y-61883390D01*
X181666666Y-61883390D02*
X181714285Y-61931009D01*
X181714285Y-61931009D02*
X181761904Y-62026247D01*
X181761904Y-62026247D02*
X181761904Y-62264342D01*
X181761904Y-62264342D02*
X181714285Y-62359580D01*
X181714285Y-62359580D02*
X181666666Y-62407200D01*
X181666666Y-62407200D02*
X181571428Y-62454819D01*
X181571428Y-62454819D02*
X181333333Y-62454819D01*
X181333333Y-62454819D02*
X181238095Y-62407200D01*
X181238095Y-62407200D02*
X181190476Y-62359580D01*
X124166667Y-76407200D02*
X124309524Y-76454819D01*
X124309524Y-76454819D02*
X124547619Y-76454819D01*
X124547619Y-76454819D02*
X124642857Y-76407200D01*
X124642857Y-76407200D02*
X124690476Y-76359580D01*
X124690476Y-76359580D02*
X124738095Y-76264342D01*
X124738095Y-76264342D02*
X124738095Y-76169104D01*
X124738095Y-76169104D02*
X124690476Y-76073866D01*
X124690476Y-76073866D02*
X124642857Y-76026247D01*
X124642857Y-76026247D02*
X124547619Y-75978628D01*
X124547619Y-75978628D02*
X124357143Y-75931009D01*
X124357143Y-75931009D02*
X124261905Y-75883390D01*
X124261905Y-75883390D02*
X124214286Y-75835771D01*
X124214286Y-75835771D02*
X124166667Y-75740533D01*
X124166667Y-75740533D02*
X124166667Y-75645295D01*
X124166667Y-75645295D02*
X124214286Y-75550057D01*
X124214286Y-75550057D02*
X124261905Y-75502438D01*
X124261905Y-75502438D02*
X124357143Y-75454819D01*
X124357143Y-75454819D02*
X124595238Y-75454819D01*
X124595238Y-75454819D02*
X124738095Y-75502438D01*
X125071429Y-75454819D02*
X125309524Y-76454819D01*
X125309524Y-76454819D02*
X125500000Y-75740533D01*
X125500000Y-75740533D02*
X125690476Y-76454819D01*
X125690476Y-76454819D02*
X125928572Y-75454819D01*
X126261905Y-75550057D02*
X126309524Y-75502438D01*
X126309524Y-75502438D02*
X126404762Y-75454819D01*
X126404762Y-75454819D02*
X126642857Y-75454819D01*
X126642857Y-75454819D02*
X126738095Y-75502438D01*
X126738095Y-75502438D02*
X126785714Y-75550057D01*
X126785714Y-75550057D02*
X126833333Y-75645295D01*
X126833333Y-75645295D02*
X126833333Y-75740533D01*
X126833333Y-75740533D02*
X126785714Y-75883390D01*
X126785714Y-75883390D02*
X126214286Y-76454819D01*
X126214286Y-76454819D02*
X126833333Y-76454819D01*
X153624819Y-91216666D02*
X153148628Y-91549999D01*
X153624819Y-91788094D02*
X152624819Y-91788094D01*
X152624819Y-91788094D02*
X152624819Y-91407142D01*
X152624819Y-91407142D02*
X152672438Y-91311904D01*
X152672438Y-91311904D02*
X152720057Y-91264285D01*
X152720057Y-91264285D02*
X152815295Y-91216666D01*
X152815295Y-91216666D02*
X152958152Y-91216666D01*
X152958152Y-91216666D02*
X153053390Y-91264285D01*
X153053390Y-91264285D02*
X153101009Y-91311904D01*
X153101009Y-91311904D02*
X153148628Y-91407142D01*
X153148628Y-91407142D02*
X153148628Y-91788094D01*
X152624819Y-90883332D02*
X152624819Y-90216666D01*
X152624819Y-90216666D02*
X153624819Y-90645237D01*
D12*
%TO.C,R9*%
X158590000Y-91727064D02*
X158590000Y-90272936D01*
X160410000Y-91727064D02*
X160410000Y-90272936D01*
%TO.C,U2*%
X143750000Y-61780000D02*
X143750000Y-82220000D01*
X143750000Y-82220000D02*
X148250000Y-82220000D01*
X145000000Y-61780000D02*
X143750000Y-61780000D01*
X148250000Y-61780000D02*
X147000000Y-61780000D01*
X148250000Y-82220000D02*
X148250000Y-61780000D01*
X140750000Y-61720000D02*
X151250000Y-61720000D01*
X151250000Y-82280000D01*
X140750000Y-82280000D01*
X140750000Y-61720000D01*
X147000000Y-61780000D02*
G75*
G02*
X145000000Y-61780000I-1000000J0D01*
G01*
%TO.C,R14*%
X184772936Y-89090000D02*
X186227064Y-89090000D01*
X184772936Y-90910000D02*
X186227064Y-90910000D01*
%TO.C,R6*%
X184772936Y-80090000D02*
X186227064Y-80090000D01*
X184772936Y-81910000D02*
X186227064Y-81910000D01*
%TO.C,R4*%
X171000000Y-34960000D02*
X171000000Y-35730000D01*
X171000000Y-43040000D02*
X171000000Y-42270000D01*
X169630000Y-42270000D02*
X172370000Y-42270000D01*
X172370000Y-35730000D01*
X169630000Y-35730000D01*
X169630000Y-42270000D01*
%TO.C,D4*%
X127490000Y-35000000D02*
X129780000Y-35000000D01*
X130560000Y-33530000D02*
X130560000Y-36470000D01*
X130680000Y-33530000D02*
X130680000Y-36470000D01*
X130800000Y-33530000D02*
X130800000Y-36470000D01*
X137510000Y-35000000D02*
X135220000Y-35000000D01*
X129780000Y-33530000D02*
X135220000Y-33530000D01*
X135220000Y-36470000D01*
X129780000Y-36470000D01*
X129780000Y-33530000D01*
%TO.C,U6*%
X132500000Y-66440000D02*
X131700000Y-66440000D01*
X132500000Y-66440000D02*
X133300000Y-66440000D01*
X132500000Y-69560000D02*
X131700000Y-69560000D01*
X132500000Y-69560000D02*
X133300000Y-69560000D01*
X131200000Y-66490000D02*
X130960000Y-66160000D01*
X131440000Y-66160000D01*
X131200000Y-66490000D01*
G36*
X131200000Y-66490000D02*
G01*
X130960000Y-66160000D01*
X131440000Y-66160000D01*
X131200000Y-66490000D01*
G37*
%TO.C,R18*%
X184272936Y-69590000D02*
X185727064Y-69590000D01*
X184272936Y-71410000D02*
X185727064Y-71410000D01*
%TO.C,U1*%
X129250000Y-39360000D02*
X129250000Y-49640000D01*
X129250000Y-49640000D02*
X133750000Y-49640000D01*
X130500000Y-39360000D02*
X129250000Y-39360000D01*
X133750000Y-39360000D02*
X132500000Y-39360000D01*
X133750000Y-49640000D02*
X133750000Y-39360000D01*
X126250000Y-39300000D02*
X136750000Y-39300000D01*
X136750000Y-49700000D01*
X126250000Y-49700000D01*
X126250000Y-39300000D01*
X132500000Y-39360000D02*
G75*
G02*
X130500000Y-39360000I-1000000J0D01*
G01*
%TO.C,R10*%
X163090000Y-91727064D02*
X163090000Y-90272936D01*
X164910000Y-91727064D02*
X164910000Y-90272936D01*
%TO.C,C4*%
X113288748Y-88590000D02*
X114711252Y-88590000D01*
X113288748Y-90410000D02*
X114711252Y-90410000D01*
%TO.C,U3*%
X156750000Y-61780000D02*
X156750000Y-82220000D01*
X156750000Y-82220000D02*
X161250000Y-82220000D01*
X158000000Y-61780000D02*
X156750000Y-61780000D01*
X161250000Y-61780000D02*
X160000000Y-61780000D01*
X161250000Y-82220000D02*
X161250000Y-61780000D01*
X153750000Y-61720000D02*
X164250000Y-61720000D01*
X164250000Y-82280000D01*
X153750000Y-82280000D01*
X153750000Y-61720000D01*
X160000000Y-61780000D02*
G75*
G02*
X158000000Y-61780000I-1000000J0D01*
G01*
%TO.C,D3*%
X165455000Y-55830000D02*
X168545000Y-55830000D01*
X165455170Y-55830000D02*
G75*
G02*
X167000000Y-50280000I1544830J2560000D01*
G01*
X167000000Y-50280000D02*
G75*
G02*
X168544830Y-55830000I0J-2990000D01*
G01*
X169500000Y-53270000D02*
G75*
G02*
X164500000Y-53270000I-2500000J0D01*
G01*
X164500000Y-53270000D02*
G75*
G02*
X169500000Y-53270000I2500000J0D01*
G01*
%TO.C,U4*%
X169750000Y-61780000D02*
X169750000Y-82220000D01*
X169750000Y-82220000D02*
X174250000Y-82220000D01*
X171000000Y-61780000D02*
X169750000Y-61780000D01*
X174250000Y-61780000D02*
X173000000Y-61780000D01*
X174250000Y-82220000D02*
X174250000Y-61780000D01*
X166750000Y-61720000D02*
X177250000Y-61720000D01*
X177250000Y-82280000D01*
X166750000Y-82280000D01*
X166750000Y-61720000D01*
X173000000Y-61780000D02*
G75*
G02*
X171000000Y-61780000I-1000000J0D01*
G01*
%TO.C,C2*%
X143420000Y-39960000D02*
X144960000Y-39960000D01*
X143420000Y-40000000D02*
X144960000Y-40000000D01*
X143421000Y-39920000D02*
X144960000Y-39920000D01*
X143423000Y-39880000D02*
X144960000Y-39880000D01*
X143425000Y-39840000D02*
X144960000Y-39840000D01*
X143428000Y-39800000D02*
X144960000Y-39800000D01*
X143431000Y-39760000D02*
X144960000Y-39760000D01*
X143435000Y-39720000D02*
X144960000Y-39720000D01*
X143440000Y-39680000D02*
X144960000Y-39680000D01*
X143445000Y-39640000D02*
X144960000Y-39640000D01*
X143451000Y-39600000D02*
X144960000Y-39600000D01*
X143457000Y-39560000D02*
X144960000Y-39560000D01*
X143464000Y-39520000D02*
X144960000Y-39520000D01*
X143472000Y-39480000D02*
X144960000Y-39480000D01*
X143481000Y-39440000D02*
X144960000Y-39440000D01*
X143490000Y-39400000D02*
X144960000Y-39400000D01*
X143499000Y-39360000D02*
X144960000Y-39360000D01*
X143510000Y-39320000D02*
X144960000Y-39320000D01*
X143521000Y-39280000D02*
X144960000Y-39280000D01*
X143533000Y-39240000D02*
X144960000Y-39240000D01*
X143545000Y-39200000D02*
X144960000Y-39200000D01*
X143558000Y-39160000D02*
X144960000Y-39160000D01*
X143572000Y-39120000D02*
X144960000Y-39120000D01*
X143587000Y-39080000D02*
X144960000Y-39080000D01*
X143602000Y-39040000D02*
X144960000Y-39040000D01*
X143618000Y-39000000D02*
X144960000Y-39000000D01*
X143635000Y-38960000D02*
X144960000Y-38960000D01*
X143653000Y-38920000D02*
X144960000Y-38920000D01*
X143671000Y-38880000D02*
X144960000Y-38880000D01*
X143691000Y-38840000D02*
X144960000Y-38840000D01*
X143711000Y-38800000D02*
X144960000Y-38800000D01*
X143732000Y-38760000D02*
X144960000Y-38760000D01*
X143754000Y-38720000D02*
X144960000Y-38720000D01*
X143777000Y-38680000D02*
X144960000Y-38680000D01*
X143801000Y-38640000D02*
X144960000Y-38640000D01*
X143825000Y-38600000D02*
X144960000Y-38600000D01*
X143851000Y-38560000D02*
X144960000Y-38560000D01*
X143878000Y-38520000D02*
X144960000Y-38520000D01*
X143906000Y-38480000D02*
X144960000Y-38480000D01*
X143935000Y-38440000D02*
X144960000Y-38440000D01*
X143965000Y-38400000D02*
X144960000Y-38400000D01*
X143997000Y-38360000D02*
X144960000Y-38360000D01*
X144030000Y-38320000D02*
X144960000Y-38320000D01*
X144064000Y-38280000D02*
X144960000Y-38280000D01*
X144099000Y-38240000D02*
X144960000Y-38240000D01*
X144136000Y-38200000D02*
X144960000Y-38200000D01*
X144175000Y-38160000D02*
X144960000Y-38160000D01*
X144215000Y-38120000D02*
X144960000Y-38120000D01*
X144257000Y-38080000D02*
X144960000Y-38080000D01*
X144275000Y-42554775D02*
X144775000Y-42554775D01*
X144301000Y-38040000D02*
X144960000Y-38040000D01*
X144348000Y-38000000D02*
X144960000Y-38000000D01*
X144396000Y-37960000D02*
X147604000Y-37960000D01*
X144447000Y-37920000D02*
X147553000Y-37920000D01*
X144501000Y-37880000D02*
X147499000Y-37880000D01*
X144525000Y-42804775D02*
X144525000Y-42304775D01*
X144557000Y-37840000D02*
X147443000Y-37840000D01*
X144617000Y-37800000D02*
X147383000Y-37800000D01*
X144681000Y-37760000D02*
X147319000Y-37760000D01*
X144749000Y-37720000D02*
X147251000Y-37720000D01*
X144823000Y-37680000D02*
X147177000Y-37680000D01*
X144902000Y-37640000D02*
X147098000Y-37640000D01*
X144989000Y-37600000D02*
X147011000Y-37600000D01*
X145086000Y-37560000D02*
X146914000Y-37560000D01*
X145195000Y-37520000D02*
X146805000Y-37520000D01*
X145323000Y-37480000D02*
X146677000Y-37480000D01*
X145483000Y-37440000D02*
X146517000Y-37440000D01*
X145717000Y-37400000D02*
X146283000Y-37400000D01*
X147040000Y-38000000D02*
X147652000Y-38000000D01*
X147040000Y-38040000D02*
X147699000Y-38040000D01*
X147040000Y-38080000D02*
X147743000Y-38080000D01*
X147040000Y-38120000D02*
X147785000Y-38120000D01*
X147040000Y-38160000D02*
X147825000Y-38160000D01*
X147040000Y-38200000D02*
X147864000Y-38200000D01*
X147040000Y-38240000D02*
X147901000Y-38240000D01*
X147040000Y-38280000D02*
X147936000Y-38280000D01*
X147040000Y-38320000D02*
X147970000Y-38320000D01*
X147040000Y-38360000D02*
X148003000Y-38360000D01*
X147040000Y-38400000D02*
X148035000Y-38400000D01*
X147040000Y-38440000D02*
X148065000Y-38440000D01*
X147040000Y-38480000D02*
X148094000Y-38480000D01*
X147040000Y-38520000D02*
X148122000Y-38520000D01*
X147040000Y-38560000D02*
X148149000Y-38560000D01*
X147040000Y-38600000D02*
X148175000Y-38600000D01*
X147040000Y-38640000D02*
X148199000Y-38640000D01*
X147040000Y-38680000D02*
X148223000Y-38680000D01*
X147040000Y-38720000D02*
X148246000Y-38720000D01*
X147040000Y-38760000D02*
X148268000Y-38760000D01*
X147040000Y-38800000D02*
X148289000Y-38800000D01*
X147040000Y-38840000D02*
X148309000Y-38840000D01*
X147040000Y-38880000D02*
X148329000Y-38880000D01*
X147040000Y-38920000D02*
X148347000Y-38920000D01*
X147040000Y-38960000D02*
X148365000Y-38960000D01*
X147040000Y-39000000D02*
X148382000Y-39000000D01*
X147040000Y-39040000D02*
X148398000Y-39040000D01*
X147040000Y-39080000D02*
X148413000Y-39080000D01*
X147040000Y-39120000D02*
X148428000Y-39120000D01*
X147040000Y-39160000D02*
X148442000Y-39160000D01*
X147040000Y-39200000D02*
X148455000Y-39200000D01*
X147040000Y-39240000D02*
X148467000Y-39240000D01*
X147040000Y-39280000D02*
X148479000Y-39280000D01*
X147040000Y-39320000D02*
X148490000Y-39320000D01*
X147040000Y-39360000D02*
X148501000Y-39360000D01*
X147040000Y-39400000D02*
X148510000Y-39400000D01*
X147040000Y-39440000D02*
X148519000Y-39440000D01*
X147040000Y-39480000D02*
X148528000Y-39480000D01*
X147040000Y-39520000D02*
X148536000Y-39520000D01*
X147040000Y-39560000D02*
X148543000Y-39560000D01*
X147040000Y-39600000D02*
X148549000Y-39600000D01*
X147040000Y-39640000D02*
X148555000Y-39640000D01*
X147040000Y-39680000D02*
X148560000Y-39680000D01*
X147040000Y-39720000D02*
X148565000Y-39720000D01*
X147040000Y-39760000D02*
X148569000Y-39760000D01*
X147040000Y-39800000D02*
X148572000Y-39800000D01*
X147040000Y-39840000D02*
X148575000Y-39840000D01*
X147040000Y-39880000D02*
X148577000Y-39880000D01*
X147040000Y-39920000D02*
X148579000Y-39920000D01*
X147040000Y-39960000D02*
X148580000Y-39960000D01*
X147040000Y-40000000D02*
X148580000Y-40000000D01*
X148620000Y-40000000D02*
G75*
G02*
X143380000Y-40000000I-2620000J0D01*
G01*
X143380000Y-40000000D02*
G75*
G02*
X148620000Y-40000000I2620000J0D01*
G01*
%TO.C,R13*%
X150090000Y-91727064D02*
X150090000Y-90272936D01*
X151910000Y-91727064D02*
X151910000Y-90272936D01*
%TO.C,J1*%
X104497500Y-53380000D02*
X115237500Y-53380000D01*
X104497500Y-63620000D02*
X104497500Y-53380000D01*
X108117500Y-63620000D02*
X108117500Y-53380000D01*
X109117500Y-63620000D02*
X109117500Y-53380000D01*
X113117500Y-63620000D02*
X113117500Y-53380000D01*
X115237500Y-53380000D02*
X115237500Y-60700000D01*
X115237500Y-61300000D02*
X115237500Y-63620000D01*
X115237500Y-63620000D02*
X104497500Y-63620000D01*
X115847500Y-61440000D02*
X115237500Y-61000000D01*
X115847500Y-60560000D01*
X115847500Y-61440000D01*
G36*
X115847500Y-61440000D02*
G01*
X115237500Y-61000000D01*
X115847500Y-60560000D01*
X115847500Y-61440000D01*
G37*
%TO.C,R12*%
X171090000Y-91727064D02*
X171090000Y-90272936D01*
X172910000Y-91727064D02*
X172910000Y-90272936D01*
%TO.C,U7*%
X111355000Y-73360000D02*
X111355000Y-83640000D01*
X111355000Y-83640000D02*
X116655000Y-83640000D01*
X113005000Y-73360000D02*
X111355000Y-73360000D01*
X116655000Y-73360000D02*
X115005000Y-73360000D01*
X116655000Y-83640000D02*
X116655000Y-73360000D01*
X115005000Y-73360000D02*
G75*
G02*
X113005000Y-73360000I-1000000J0D01*
G01*
%TO.C,R1*%
X156000000Y-34960000D02*
X156000000Y-35730000D01*
X156000000Y-43040000D02*
X156000000Y-42270000D01*
X154630000Y-42270000D02*
X157370000Y-42270000D01*
X157370000Y-35730000D01*
X154630000Y-35730000D01*
X154630000Y-42270000D01*
%TO.C,U5*%
X190902500Y-65352500D02*
X192532500Y-65352500D01*
X190902500Y-66982500D02*
X190902500Y-65352500D01*
D11*
X191262500Y-65712500D02*
X191262500Y-78412500D01*
X191262500Y-78412500D02*
X198882500Y-78412500D01*
X198882500Y-65712500D02*
X191262500Y-65712500D01*
X198882500Y-78412500D02*
X198882500Y-65712500D01*
D12*
%TO.C,R5*%
X184772936Y-76090000D02*
X186227064Y-76090000D01*
X184772936Y-77910000D02*
X186227064Y-77910000D01*
%TO.C,D1*%
X149455000Y-55830000D02*
X152545000Y-55830000D01*
X149455170Y-55830000D02*
G75*
G02*
X151000000Y-50280000I1544830J2560000D01*
G01*
X151000000Y-50280000D02*
G75*
G02*
X152544830Y-55830000I0J-2990000D01*
G01*
X153500000Y-53270000D02*
G75*
G02*
X148500000Y-53270000I-2500000J0D01*
G01*
X148500000Y-53270000D02*
G75*
G02*
X153500000Y-53270000I2500000J0D01*
G01*
%TO.C,R17*%
X184272936Y-66090000D02*
X185727064Y-66090000D01*
X184272936Y-67910000D02*
X185727064Y-67910000D01*
%TO.C,R20*%
X105090000Y-75727064D02*
X105090000Y-74272936D01*
X106910000Y-75727064D02*
X106910000Y-74272936D01*
%TO.C,R11*%
X167090000Y-91727064D02*
X167090000Y-90272936D01*
X168910000Y-91727064D02*
X168910000Y-90272936D01*
%TO.C,C1*%
X117420000Y-39960000D02*
X118960000Y-39960000D01*
X117420000Y-40000000D02*
X118960000Y-40000000D01*
X117421000Y-39920000D02*
X118960000Y-39920000D01*
X117423000Y-39880000D02*
X118960000Y-39880000D01*
X117425000Y-39840000D02*
X118960000Y-39840000D01*
X117428000Y-39800000D02*
X118960000Y-39800000D01*
X117431000Y-39760000D02*
X118960000Y-39760000D01*
X117435000Y-39720000D02*
X118960000Y-39720000D01*
X117440000Y-39680000D02*
X118960000Y-39680000D01*
X117445000Y-39640000D02*
X118960000Y-39640000D01*
X117451000Y-39600000D02*
X118960000Y-39600000D01*
X117457000Y-39560000D02*
X118960000Y-39560000D01*
X117464000Y-39520000D02*
X118960000Y-39520000D01*
X117472000Y-39480000D02*
X118960000Y-39480000D01*
X117481000Y-39440000D02*
X118960000Y-39440000D01*
X117490000Y-39400000D02*
X118960000Y-39400000D01*
X117499000Y-39360000D02*
X118960000Y-39360000D01*
X117510000Y-39320000D02*
X118960000Y-39320000D01*
X117521000Y-39280000D02*
X118960000Y-39280000D01*
X117533000Y-39240000D02*
X118960000Y-39240000D01*
X117545000Y-39200000D02*
X118960000Y-39200000D01*
X117558000Y-39160000D02*
X118960000Y-39160000D01*
X117572000Y-39120000D02*
X118960000Y-39120000D01*
X117587000Y-39080000D02*
X118960000Y-39080000D01*
X117602000Y-39040000D02*
X118960000Y-39040000D01*
X117618000Y-39000000D02*
X118960000Y-39000000D01*
X117635000Y-38960000D02*
X118960000Y-38960000D01*
X117653000Y-38920000D02*
X118960000Y-38920000D01*
X117671000Y-38880000D02*
X118960000Y-38880000D01*
X117691000Y-38840000D02*
X118960000Y-38840000D01*
X117711000Y-38800000D02*
X118960000Y-38800000D01*
X117732000Y-38760000D02*
X118960000Y-38760000D01*
X117754000Y-38720000D02*
X118960000Y-38720000D01*
X117777000Y-38680000D02*
X118960000Y-38680000D01*
X117801000Y-38640000D02*
X118960000Y-38640000D01*
X117825000Y-38600000D02*
X118960000Y-38600000D01*
X117851000Y-38560000D02*
X118960000Y-38560000D01*
X117878000Y-38520000D02*
X118960000Y-38520000D01*
X117906000Y-38480000D02*
X118960000Y-38480000D01*
X117935000Y-38440000D02*
X118960000Y-38440000D01*
X117965000Y-38400000D02*
X118960000Y-38400000D01*
X117997000Y-38360000D02*
X118960000Y-38360000D01*
X118030000Y-38320000D02*
X118960000Y-38320000D01*
X118064000Y-38280000D02*
X118960000Y-38280000D01*
X118099000Y-38240000D02*
X118960000Y-38240000D01*
X118136000Y-38200000D02*
X118960000Y-38200000D01*
X118175000Y-38160000D02*
X118960000Y-38160000D01*
X118215000Y-38120000D02*
X118960000Y-38120000D01*
X118257000Y-38080000D02*
X118960000Y-38080000D01*
X118275000Y-42554775D02*
X118775000Y-42554775D01*
X118301000Y-38040000D02*
X118960000Y-38040000D01*
X118348000Y-38000000D02*
X118960000Y-38000000D01*
X118396000Y-37960000D02*
X121604000Y-37960000D01*
X118447000Y-37920000D02*
X121553000Y-37920000D01*
X118501000Y-37880000D02*
X121499000Y-37880000D01*
X118525000Y-42804775D02*
X118525000Y-42304775D01*
X118557000Y-37840000D02*
X121443000Y-37840000D01*
X118617000Y-37800000D02*
X121383000Y-37800000D01*
X118681000Y-37760000D02*
X121319000Y-37760000D01*
X118749000Y-37720000D02*
X121251000Y-37720000D01*
X118823000Y-37680000D02*
X121177000Y-37680000D01*
X118902000Y-37640000D02*
X121098000Y-37640000D01*
X118989000Y-37600000D02*
X121011000Y-37600000D01*
X119086000Y-37560000D02*
X120914000Y-37560000D01*
X119195000Y-37520000D02*
X120805000Y-37520000D01*
X119323000Y-37480000D02*
X120677000Y-37480000D01*
X119483000Y-37440000D02*
X120517000Y-37440000D01*
X119717000Y-37400000D02*
X120283000Y-37400000D01*
X121040000Y-38000000D02*
X121652000Y-38000000D01*
X121040000Y-38040000D02*
X121699000Y-38040000D01*
X121040000Y-38080000D02*
X121743000Y-38080000D01*
X121040000Y-38120000D02*
X121785000Y-38120000D01*
X121040000Y-38160000D02*
X121825000Y-38160000D01*
X121040000Y-38200000D02*
X121864000Y-38200000D01*
X121040000Y-38240000D02*
X121901000Y-38240000D01*
X121040000Y-38280000D02*
X121936000Y-38280000D01*
X121040000Y-38320000D02*
X121970000Y-38320000D01*
X121040000Y-38360000D02*
X122003000Y-38360000D01*
X121040000Y-38400000D02*
X122035000Y-38400000D01*
X121040000Y-38440000D02*
X122065000Y-38440000D01*
X121040000Y-38480000D02*
X122094000Y-38480000D01*
X121040000Y-38520000D02*
X122122000Y-38520000D01*
X121040000Y-38560000D02*
X122149000Y-38560000D01*
X121040000Y-38600000D02*
X122175000Y-38600000D01*
X121040000Y-38640000D02*
X122199000Y-38640000D01*
X121040000Y-38680000D02*
X122223000Y-38680000D01*
X121040000Y-38720000D02*
X122246000Y-38720000D01*
X121040000Y-38760000D02*
X122268000Y-38760000D01*
X121040000Y-38800000D02*
X122289000Y-38800000D01*
X121040000Y-38840000D02*
X122309000Y-38840000D01*
X121040000Y-38880000D02*
X122329000Y-38880000D01*
X121040000Y-38920000D02*
X122347000Y-38920000D01*
X121040000Y-38960000D02*
X122365000Y-38960000D01*
X121040000Y-39000000D02*
X122382000Y-39000000D01*
X121040000Y-39040000D02*
X122398000Y-39040000D01*
X121040000Y-39080000D02*
X122413000Y-39080000D01*
X121040000Y-39120000D02*
X122428000Y-39120000D01*
X121040000Y-39160000D02*
X122442000Y-39160000D01*
X121040000Y-39200000D02*
X122455000Y-39200000D01*
X121040000Y-39240000D02*
X122467000Y-39240000D01*
X121040000Y-39280000D02*
X122479000Y-39280000D01*
X121040000Y-39320000D02*
X122490000Y-39320000D01*
X121040000Y-39360000D02*
X122501000Y-39360000D01*
X121040000Y-39400000D02*
X122510000Y-39400000D01*
X121040000Y-39440000D02*
X122519000Y-39440000D01*
X121040000Y-39480000D02*
X122528000Y-39480000D01*
X121040000Y-39520000D02*
X122536000Y-39520000D01*
X121040000Y-39560000D02*
X122543000Y-39560000D01*
X121040000Y-39600000D02*
X122549000Y-39600000D01*
X121040000Y-39640000D02*
X122555000Y-39640000D01*
X121040000Y-39680000D02*
X122560000Y-39680000D01*
X121040000Y-39720000D02*
X122565000Y-39720000D01*
X121040000Y-39760000D02*
X122569000Y-39760000D01*
X121040000Y-39800000D02*
X122572000Y-39800000D01*
X121040000Y-39840000D02*
X122575000Y-39840000D01*
X121040000Y-39880000D02*
X122577000Y-39880000D01*
X121040000Y-39920000D02*
X122579000Y-39920000D01*
X121040000Y-39960000D02*
X122580000Y-39960000D01*
X121040000Y-40000000D02*
X122580000Y-40000000D01*
X122620000Y-40000000D02*
G75*
G02*
X117380000Y-40000000I-2620000J0D01*
G01*
X117380000Y-40000000D02*
G75*
G02*
X122620000Y-40000000I2620000J0D01*
G01*
%TO.C,D2*%
X157455000Y-55830000D02*
X160545000Y-55830000D01*
X157455170Y-55830000D02*
G75*
G02*
X159000000Y-50280000I1544830J2560000D01*
G01*
X159000000Y-50280000D02*
G75*
G02*
X160544830Y-55830000I0J-2990000D01*
G01*
X161500000Y-53270000D02*
G75*
G02*
X156500000Y-53270000I-2500000J0D01*
G01*
X156500000Y-53270000D02*
G75*
G02*
X161500000Y-53270000I2500000J0D01*
G01*
%TO.C,R16*%
X184322936Y-73090000D02*
X185777064Y-73090000D01*
X184322936Y-74910000D02*
X185777064Y-74910000D01*
%TO.C,R3*%
X166000000Y-34960000D02*
X166000000Y-35730000D01*
X166000000Y-43040000D02*
X166000000Y-42270000D01*
X164630000Y-42270000D02*
X167370000Y-42270000D01*
X167370000Y-35730000D01*
X164630000Y-35730000D01*
X164630000Y-42270000D01*
%TO.C,SW1*%
X151500000Y-102250000D02*
X151500000Y-103750000D01*
X152750000Y-106250000D02*
X157250000Y-106250000D01*
X157250000Y-99750000D02*
X152750000Y-99750000D01*
X158500000Y-103750000D02*
X158500000Y-102250000D01*
%TO.C,C5*%
X121590000Y-80711252D02*
X121590000Y-79288748D01*
X123410000Y-80711252D02*
X123410000Y-79288748D01*
%TO.C,R2*%
X161000000Y-34960000D02*
X161000000Y-35730000D01*
X161000000Y-43040000D02*
X161000000Y-42270000D01*
X159630000Y-42270000D02*
X162370000Y-42270000D01*
X162370000Y-35730000D01*
X159630000Y-35730000D01*
X159630000Y-42270000D01*
%TO.C,L1*%
X146220000Y-51000000D02*
G75*
G02*
X138780000Y-51000000I-3720000J0D01*
G01*
X138780000Y-51000000D02*
G75*
G02*
X146220000Y-51000000I3720000J0D01*
G01*
%TO.C,C3*%
X140740113Y-90025000D02*
X141240113Y-90025000D01*
X140990113Y-89775000D02*
X140990113Y-90275000D01*
X143544888Y-88920000D02*
X143544888Y-90460000D01*
X143544888Y-92540000D02*
X143544888Y-94080000D01*
X143584888Y-88920000D02*
X143584888Y-90460000D01*
X143584888Y-92540000D02*
X143584888Y-94080000D01*
X143624888Y-88921000D02*
X143624888Y-90460000D01*
X143624888Y-92540000D02*
X143624888Y-94079000D01*
X143664888Y-88923000D02*
X143664888Y-90460000D01*
X143664888Y-92540000D02*
X143664888Y-94077000D01*
X143704888Y-88925000D02*
X143704888Y-90460000D01*
X143704888Y-92540000D02*
X143704888Y-94075000D01*
X143744888Y-88928000D02*
X143744888Y-90460000D01*
X143744888Y-92540000D02*
X143744888Y-94072000D01*
X143784888Y-88931000D02*
X143784888Y-90460000D01*
X143784888Y-92540000D02*
X143784888Y-94069000D01*
X143824888Y-88935000D02*
X143824888Y-90460000D01*
X143824888Y-92540000D02*
X143824888Y-94065000D01*
X143864888Y-88940000D02*
X143864888Y-90460000D01*
X143864888Y-92540000D02*
X143864888Y-94060000D01*
X143904888Y-88945000D02*
X143904888Y-90460000D01*
X143904888Y-92540000D02*
X143904888Y-94055000D01*
X143944888Y-88951000D02*
X143944888Y-90460000D01*
X143944888Y-92540000D02*
X143944888Y-94049000D01*
X143984888Y-88957000D02*
X143984888Y-90460000D01*
X143984888Y-92540000D02*
X143984888Y-94043000D01*
X144024888Y-88964000D02*
X144024888Y-90460000D01*
X144024888Y-92540000D02*
X144024888Y-94036000D01*
X144064888Y-88972000D02*
X144064888Y-90460000D01*
X144064888Y-92540000D02*
X144064888Y-94028000D01*
X144104888Y-88981000D02*
X144104888Y-90460000D01*
X144104888Y-92540000D02*
X144104888Y-94019000D01*
X144144888Y-88990000D02*
X144144888Y-90460000D01*
X144144888Y-92540000D02*
X144144888Y-94010000D01*
X144184888Y-88999000D02*
X144184888Y-90460000D01*
X144184888Y-92540000D02*
X144184888Y-94001000D01*
X144224888Y-89010000D02*
X144224888Y-90460000D01*
X144224888Y-92540000D02*
X144224888Y-93990000D01*
X144264888Y-89021000D02*
X144264888Y-90460000D01*
X144264888Y-92540000D02*
X144264888Y-93979000D01*
X144304888Y-89033000D02*
X144304888Y-90460000D01*
X144304888Y-92540000D02*
X144304888Y-93967000D01*
X144344888Y-89045000D02*
X144344888Y-90460000D01*
X144344888Y-92540000D02*
X144344888Y-93955000D01*
X144384888Y-89058000D02*
X144384888Y-90460000D01*
X144384888Y-92540000D02*
X144384888Y-93942000D01*
X144424888Y-89072000D02*
X144424888Y-90460000D01*
X144424888Y-92540000D02*
X144424888Y-93928000D01*
X144464888Y-89087000D02*
X144464888Y-90460000D01*
X144464888Y-92540000D02*
X144464888Y-93913000D01*
X144504888Y-89102000D02*
X144504888Y-90460000D01*
X144504888Y-92540000D02*
X144504888Y-93898000D01*
X144544888Y-89118000D02*
X144544888Y-90460000D01*
X144544888Y-92540000D02*
X144544888Y-93882000D01*
X144584888Y-89135000D02*
X144584888Y-90460000D01*
X144584888Y-92540000D02*
X144584888Y-93865000D01*
X144624888Y-89153000D02*
X144624888Y-90460000D01*
X144624888Y-92540000D02*
X144624888Y-93847000D01*
X144664888Y-89171000D02*
X144664888Y-90460000D01*
X144664888Y-92540000D02*
X144664888Y-93829000D01*
X144704888Y-89191000D02*
X144704888Y-90460000D01*
X144704888Y-92540000D02*
X144704888Y-93809000D01*
X144744888Y-89211000D02*
X144744888Y-90460000D01*
X144744888Y-92540000D02*
X144744888Y-93789000D01*
X144784888Y-89232000D02*
X144784888Y-90460000D01*
X144784888Y-92540000D02*
X144784888Y-93768000D01*
X144824888Y-89254000D02*
X144824888Y-90460000D01*
X144824888Y-92540000D02*
X144824888Y-93746000D01*
X144864888Y-89277000D02*
X144864888Y-90460000D01*
X144864888Y-92540000D02*
X144864888Y-93723000D01*
X144904888Y-89301000D02*
X144904888Y-90460000D01*
X144904888Y-92540000D02*
X144904888Y-93699000D01*
X144944888Y-89325000D02*
X144944888Y-90460000D01*
X144944888Y-92540000D02*
X144944888Y-93675000D01*
X144984888Y-89351000D02*
X144984888Y-90460000D01*
X144984888Y-92540000D02*
X144984888Y-93649000D01*
X145024888Y-89378000D02*
X145024888Y-90460000D01*
X145024888Y-92540000D02*
X145024888Y-93622000D01*
X145064888Y-89406000D02*
X145064888Y-90460000D01*
X145064888Y-92540000D02*
X145064888Y-93594000D01*
X145104888Y-89435000D02*
X145104888Y-90460000D01*
X145104888Y-92540000D02*
X145104888Y-93565000D01*
X145144888Y-89465000D02*
X145144888Y-90460000D01*
X145144888Y-92540000D02*
X145144888Y-93535000D01*
X145184888Y-89497000D02*
X145184888Y-90460000D01*
X145184888Y-92540000D02*
X145184888Y-93503000D01*
X145224888Y-89530000D02*
X145224888Y-90460000D01*
X145224888Y-92540000D02*
X145224888Y-93470000D01*
X145264888Y-89564000D02*
X145264888Y-90460000D01*
X145264888Y-92540000D02*
X145264888Y-93436000D01*
X145304888Y-89599000D02*
X145304888Y-90460000D01*
X145304888Y-92540000D02*
X145304888Y-93401000D01*
X145344888Y-89636000D02*
X145344888Y-90460000D01*
X145344888Y-92540000D02*
X145344888Y-93364000D01*
X145384888Y-89675000D02*
X145384888Y-90460000D01*
X145384888Y-92540000D02*
X145384888Y-93325000D01*
X145424888Y-89715000D02*
X145424888Y-90460000D01*
X145424888Y-92540000D02*
X145424888Y-93285000D01*
X145464888Y-89757000D02*
X145464888Y-90460000D01*
X145464888Y-92540000D02*
X145464888Y-93243000D01*
X145504888Y-89801000D02*
X145504888Y-90460000D01*
X145504888Y-92540000D02*
X145504888Y-93199000D01*
X145544888Y-89848000D02*
X145544888Y-90460000D01*
X145544888Y-92540000D02*
X145544888Y-93152000D01*
X145584888Y-89896000D02*
X145584888Y-93104000D01*
X145624888Y-89947000D02*
X145624888Y-93053000D01*
X145664888Y-90001000D02*
X145664888Y-92999000D01*
X145704888Y-90057000D02*
X145704888Y-92943000D01*
X145744888Y-90117000D02*
X145744888Y-92883000D01*
X145784888Y-90181000D02*
X145784888Y-92819000D01*
X145824888Y-90249000D02*
X145824888Y-92751000D01*
X145864888Y-90323000D02*
X145864888Y-92677000D01*
X145904888Y-90402000D02*
X145904888Y-92598000D01*
X145944888Y-90489000D02*
X145944888Y-92511000D01*
X145984888Y-90586000D02*
X145984888Y-92414000D01*
X146024888Y-90695000D02*
X146024888Y-92305000D01*
X146064888Y-90823000D02*
X146064888Y-92177000D01*
X146104888Y-90983000D02*
X146104888Y-92017000D01*
X146144888Y-91217000D02*
X146144888Y-91783000D01*
X146164888Y-91500000D02*
G75*
G02*
X140924888Y-91500000I-2620000J0D01*
G01*
X140924888Y-91500000D02*
G75*
G02*
X146164888Y-91500000I2620000J0D01*
G01*
%TO.C,D5*%
X174455000Y-55830000D02*
X177545000Y-55830000D01*
X174455170Y-55830000D02*
G75*
G02*
X176000000Y-50280000I1544830J2560000D01*
G01*
X176000000Y-50280000D02*
G75*
G02*
X177544830Y-55830000I0J-2990000D01*
G01*
X178500000Y-53270000D02*
G75*
G02*
X173500000Y-53270000I-2500000J0D01*
G01*
X173500000Y-53270000D02*
G75*
G02*
X178500000Y-53270000I2500000J0D01*
G01*
%TO.C,R8*%
X184772936Y-83590000D02*
X186227064Y-83590000D01*
X184772936Y-85410000D02*
X186227064Y-85410000D01*
%TO.C,R19*%
X105090000Y-82227064D02*
X105090000Y-80772936D01*
X106910000Y-82227064D02*
X106910000Y-80772936D01*
%TO.C,R15*%
X184272936Y-62590000D02*
X185727064Y-62590000D01*
X184272936Y-64410000D02*
X185727064Y-64410000D01*
%TO.C,SW2*%
X122540000Y-71000000D02*
X122540000Y-72000000D01*
X122540000Y-72000000D02*
X123040000Y-71500000D01*
X123040000Y-71500000D02*
X122540000Y-71000000D01*
X123240000Y-65090000D02*
X123550000Y-65090000D01*
X123240000Y-73910000D02*
X123240000Y-65090000D01*
X123550000Y-73910000D02*
X123240000Y-73910000D01*
X127760000Y-65090000D02*
X127450000Y-65090000D01*
X127760000Y-65090000D02*
X127760000Y-73910000D01*
X127760000Y-73910000D02*
X127450000Y-73910000D01*
%TO.C,R7*%
X154090000Y-91777064D02*
X154090000Y-90322936D01*
X155910000Y-91777064D02*
X155910000Y-90322936D01*
%TD*%
M02*
