%TF.GenerationSoftware,KiCad,Pcbnew,9.0.3*%
%TF.CreationDate,2025-12-16T11:32:59+01:00*%
%TF.ProjectId,PTP_project1,5054505f-7072-46f6-9a65-6374312e6b69,rev?*%
%TF.SameCoordinates,Original*%
%TF.FileFunction,Copper,L1,Top*%
%TF.FilePolarity,Positive*%
%FSLAX46Y46*%
G04 Gerber Fmt 4.6, Leading zero omitted, Abs format (unit mm)*
G04 Created by KiCad (PCBNEW 9.0.3) date 2025-12-16 11:32:59*
%MOMM*%
%LPD*%
G01*
G04 APERTURE LIST*
G04 Aperture macros list*
%AMRoundRect*
0 Rectangle with rounded corners*
0 $1 Rounding radius*
0 $2 $3 $4 $5 $6 $7 $8 $9 X,Y pos of 4 corners*
0 Add a 4 corners polygon primitive as box body*
4,1,4,$2,$3,$4,$5,$6,$7,$8,$9,$2,$3,0*
0 Add four circle primitives for the rounded corners*
1,1,$1+$1,$2,$3*
1,1,$1+$1,$4,$5*
1,1,$1+$1,$6,$7*
1,1,$1+$1,$8,$9*
0 Add four rect primitives between the rounded corners*
20,1,$1+$1,$2,$3,$4,$5,0*
20,1,$1+$1,$4,$5,$6,$7,0*
20,1,$1+$1,$6,$7,$8,$9,0*
20,1,$1+$1,$8,$9,$2,$3,0*%
G04 Aperture macros list end*
%TA.AperFunction,SMDPad,CuDef*%
%ADD10RoundRect,0.250000X0.625000X-0.400000X0.625000X0.400000X-0.625000X0.400000X-0.625000X-0.400000X0*%
%TD*%
%TA.AperFunction,ComponentPad*%
%ADD11RoundRect,0.250000X-0.950000X-0.550000X0.950000X-0.550000X0.950000X0.550000X-0.950000X0.550000X0*%
%TD*%
%TA.AperFunction,ComponentPad*%
%ADD12O,2.400000X1.600000*%
%TD*%
%TA.AperFunction,SMDPad,CuDef*%
%ADD13RoundRect,0.250000X-0.400000X-0.625000X0.400000X-0.625000X0.400000X0.625000X-0.400000X0.625000X0*%
%TD*%
%TA.AperFunction,ComponentPad*%
%ADD14C,1.600000*%
%TD*%
%TA.AperFunction,ComponentPad*%
%ADD15RoundRect,0.249999X-0.850001X-0.850001X0.850001X-0.850001X0.850001X0.850001X-0.850001X0.850001X0*%
%TD*%
%TA.AperFunction,ComponentPad*%
%ADD16C,2.200000*%
%TD*%
%TA.AperFunction,SMDPad,CuDef*%
%ADD17RoundRect,0.150000X-0.512500X-0.150000X0.512500X-0.150000X0.512500X0.150000X-0.512500X0.150000X0*%
%TD*%
%TA.AperFunction,SMDPad,CuDef*%
%ADD18RoundRect,0.250000X-0.412500X-0.650000X0.412500X-0.650000X0.412500X0.650000X-0.412500X0.650000X0*%
%TD*%
%TA.AperFunction,ComponentPad*%
%ADD19R,1.800000X1.800000*%
%TD*%
%TA.AperFunction,ComponentPad*%
%ADD20C,1.800000*%
%TD*%
%TA.AperFunction,ComponentPad*%
%ADD21RoundRect,0.250000X0.550000X-0.550000X0.550000X0.550000X-0.550000X0.550000X-0.550000X-0.550000X0*%
%TD*%
%TA.AperFunction,ComponentPad*%
%ADD22RoundRect,0.250001X1.149999X-1.149999X1.149999X1.149999X-1.149999X1.149999X-1.149999X-1.149999X0*%
%TD*%
%TA.AperFunction,ComponentPad*%
%ADD23C,2.800000*%
%TD*%
%TA.AperFunction,ComponentPad*%
%ADD24RoundRect,0.250000X-0.550000X-0.550000X0.550000X-0.550000X0.550000X0.550000X-0.550000X0.550000X0*%
%TD*%
%TA.AperFunction,ComponentPad*%
%ADD25R,1.600000X1.600000*%
%TD*%
%TA.AperFunction,ComponentPad*%
%ADD26C,2.000000*%
%TD*%
%TA.AperFunction,SMDPad,CuDef*%
%ADD27RoundRect,0.250000X0.650000X-0.412500X0.650000X0.412500X-0.650000X0.412500X-0.650000X-0.412500X0*%
%TD*%
%TA.AperFunction,ComponentPad*%
%ADD28C,2.400000*%
%TD*%
%TA.AperFunction,ComponentPad*%
%ADD29O,3.500000X2.200000*%
%TD*%
%TA.AperFunction,ComponentPad*%
%ADD30R,2.500000X1.500000*%
%TD*%
%TA.AperFunction,ComponentPad*%
%ADD31O,2.500000X1.500000*%
%TD*%
%TA.AperFunction,ViaPad*%
%ADD32C,0.700000*%
%TD*%
%TA.AperFunction,Conductor*%
%ADD33C,0.500000*%
%TD*%
%TA.AperFunction,Conductor*%
%ADD34C,0.200000*%
%TD*%
G04 APERTURE END LIST*
D10*
%TO.P,R9,1*%
%TO.N,+5V*%
X159500000Y-92550000D03*
%TO.P,R9,2*%
%TO.N,Net-(U2A-J)*%
X159500000Y-89450000D03*
%TD*%
D11*
%TO.P,U2,1,Q*%
%TO.N,Q0*%
X142190000Y-63110000D03*
D12*
%TO.P,U2,2,~{Q}*%
%TO.N,unconnected-(U2A-~{Q}-Pad2)*%
X142190000Y-65650000D03*
%TO.P,U2,3,C*%
%TO.N,Clock*%
X142190000Y-68190000D03*
%TO.P,U2,4,R*%
%TO.N,Reset*%
X142190000Y-70730000D03*
%TO.P,U2,5,K*%
%TO.N,Net-(U2A-J)*%
X142190000Y-73270000D03*
%TO.P,U2,6,J*%
X142190000Y-75810000D03*
%TO.P,U2,7,S*%
%TO.N,GND*%
X142190000Y-78350000D03*
%TO.P,U2,8,VSS*%
X142190000Y-80890000D03*
%TO.P,U2,9,S*%
X149810000Y-80890000D03*
%TO.P,U2,10,J*%
%TO.N,Net-(U2B-J)*%
X149810000Y-78350000D03*
%TO.P,U2,11,K*%
X149810000Y-75810000D03*
%TO.P,U2,12,R*%
%TO.N,Reset*%
X149810000Y-73270000D03*
%TO.P,U2,13,C*%
%TO.N,Q0*%
X149810000Y-70730000D03*
%TO.P,U2,14,~{Q}*%
%TO.N,unconnected-(U2B-~{Q}-Pad14)*%
X149810000Y-68190000D03*
%TO.P,U2,15,Q*%
%TO.N,Q1*%
X149810000Y-65650000D03*
%TO.P,U2,16,VDD*%
%TO.N,+5V*%
X149810000Y-63110000D03*
%TD*%
D13*
%TO.P,R14,1*%
%TO.N,Net-(U4-d)*%
X183950000Y-90000000D03*
%TO.P,R14,2*%
%TO.N,Net-(U5-D)*%
X187050000Y-90000000D03*
%TD*%
%TO.P,R6,1*%
%TO.N,Net-(U4-b)*%
X183950000Y-81000000D03*
%TO.P,R6,2*%
%TO.N,Net-(U5-B)*%
X187050000Y-81000000D03*
%TD*%
D14*
%TO.P,R4,1*%
%TO.N,Net-(D5-K)*%
X171000000Y-44080000D03*
%TO.P,R4,2*%
%TO.N,GND*%
X171000000Y-33920000D03*
%TD*%
D15*
%TO.P,D4,1,K*%
%TO.N,Net-(D4-K)*%
X126150000Y-35000000D03*
D16*
%TO.P,D4,2,A*%
%TO.N,GND*%
X138850000Y-35000000D03*
%TD*%
D17*
%TO.P,U6,1,A*%
%TO.N,Q1*%
X131362500Y-67050000D03*
%TO.P,U6,2,GND*%
%TO.N,GND*%
X131362500Y-68000000D03*
%TO.P,U6,3,B*%
%TO.N,Q3*%
X131362500Y-68950000D03*
%TO.P,U6,4,Y*%
%TO.N,Reset*%
X133637500Y-68950000D03*
%TO.P,U6,5,VCC*%
%TO.N,+5V*%
X133637500Y-68000000D03*
%TO.P,U6,6,C*%
%TO.N,Clock*%
X133637500Y-67050000D03*
%TD*%
D13*
%TO.P,R18,1*%
%TO.N,Net-(U4-g)*%
X183450000Y-70500000D03*
%TO.P,R18,2*%
%TO.N,Net-(U5-G)*%
X186550000Y-70500000D03*
%TD*%
D11*
%TO.P,U1,1,FB*%
%TO.N,+5V*%
X127690000Y-40690000D03*
D12*
%TO.P,U1,2,SGND*%
%TO.N,GND*%
X127690000Y-43230000D03*
%TO.P,U1,3,~{ON}/OFF*%
X127690000Y-45770000D03*
%TO.P,U1,4,PGND*%
X127690000Y-48310000D03*
%TO.P,U1,5,VIN*%
%TO.N,VD*%
X135310000Y-48310000D03*
%TO.P,U1,6,NC*%
%TO.N,unconnected-(U1-NC-Pad6)*%
X135310000Y-45770000D03*
%TO.P,U1,7,OUT*%
%TO.N,Net-(D4-K)*%
X135310000Y-43230000D03*
%TO.P,U1,8,NC*%
%TO.N,unconnected-(U1-NC-Pad8)*%
X135310000Y-40690000D03*
%TD*%
D10*
%TO.P,R10,1*%
%TO.N,+5V*%
X164000000Y-92550000D03*
%TO.P,R10,2*%
%TO.N,Net-(U2B-J)*%
X164000000Y-89450000D03*
%TD*%
D18*
%TO.P,C4,1*%
%TO.N,+5V*%
X112437500Y-89500000D03*
%TO.P,C4,2*%
%TO.N,GND*%
X115562500Y-89500000D03*
%TD*%
D11*
%TO.P,U3,1,Q*%
%TO.N,Q2*%
X155190000Y-63110000D03*
D12*
%TO.P,U3,2,~{Q}*%
%TO.N,unconnected-(U3A-~{Q}-Pad2)*%
X155190000Y-65650000D03*
%TO.P,U3,3,C*%
%TO.N,Q1*%
X155190000Y-68190000D03*
%TO.P,U3,4,R*%
%TO.N,Reset*%
X155190000Y-70730000D03*
%TO.P,U3,5,K*%
%TO.N,Net-(U3A-J)*%
X155190000Y-73270000D03*
%TO.P,U3,6,J*%
X155190000Y-75810000D03*
%TO.P,U3,7,S*%
%TO.N,GND*%
X155190000Y-78350000D03*
%TO.P,U3,8,VSS*%
X155190000Y-80890000D03*
%TO.P,U3,9,S*%
X162810000Y-80890000D03*
%TO.P,U3,10,J*%
%TO.N,Net-(U3B-J)*%
X162810000Y-78350000D03*
%TO.P,U3,11,K*%
X162810000Y-75810000D03*
%TO.P,U3,12,R*%
%TO.N,Reset*%
X162810000Y-73270000D03*
%TO.P,U3,13,C*%
%TO.N,Q2*%
X162810000Y-70730000D03*
%TO.P,U3,14,~{Q}*%
%TO.N,unconnected-(U3B-~{Q}-Pad14)*%
X162810000Y-68190000D03*
%TO.P,U3,15,Q*%
%TO.N,Q3*%
X162810000Y-65650000D03*
%TO.P,U3,16,VDD*%
%TO.N,+5V*%
X162810000Y-63110000D03*
%TD*%
D19*
%TO.P,D3,1,K*%
%TO.N,Net-(D3-K)*%
X167000000Y-54540000D03*
D20*
%TO.P,D3,2,A*%
%TO.N,Q2*%
X167000000Y-52000000D03*
%TD*%
D11*
%TO.P,U4,1,B*%
%TO.N,Q1*%
X168190000Y-63110000D03*
D12*
%TO.P,U4,2,C*%
%TO.N,Q2*%
X168190000Y-65650000D03*
%TO.P,U4,3,LT*%
%TO.N,Net-(U4-BI)*%
X168190000Y-68190000D03*
%TO.P,U4,4,BI*%
X168190000Y-70730000D03*
%TO.P,U4,5,RBI*%
X168190000Y-73270000D03*
%TO.P,U4,6,D*%
%TO.N,Q3*%
X168190000Y-75810000D03*
%TO.P,U4,7,A*%
%TO.N,Q0*%
X168190000Y-78350000D03*
%TO.P,U4,8,GND*%
%TO.N,GND*%
X168190000Y-80890000D03*
%TO.P,U4,9,e*%
%TO.N,Net-(U4-e)*%
X175810000Y-80890000D03*
%TO.P,U4,10,d*%
%TO.N,Net-(U4-d)*%
X175810000Y-78350000D03*
%TO.P,U4,11,c*%
%TO.N,Net-(U4-c)*%
X175810000Y-75810000D03*
%TO.P,U4,12,b*%
%TO.N,Net-(U4-b)*%
X175810000Y-73270000D03*
%TO.P,U4,13,a*%
%TO.N,Net-(U4-a)*%
X175810000Y-70730000D03*
%TO.P,U4,14,g*%
%TO.N,Net-(U4-g)*%
X175810000Y-68190000D03*
%TO.P,U4,15,f*%
%TO.N,Net-(U4-f)*%
X175810000Y-65650000D03*
%TO.P,U4,16,VCC*%
%TO.N,+5V*%
X175810000Y-63110000D03*
%TD*%
D21*
%TO.P,C2,1*%
%TO.N,+5V*%
X146000000Y-41000000D03*
D14*
%TO.P,C2,2*%
%TO.N,GND*%
X146000000Y-39000000D03*
%TD*%
D10*
%TO.P,R13,1*%
%TO.N,Net-(R13-Pad1)*%
X151000000Y-92550000D03*
%TO.P,R13,2*%
%TO.N,Net-(SW2-A)*%
X151000000Y-89450000D03*
%TD*%
D22*
%TO.P,J1,1,Pin_1*%
%TO.N,VD*%
X111117500Y-61000000D03*
D23*
%TO.P,J1,2,Pin_2*%
%TO.N,GND*%
X111117500Y-56000000D03*
%TD*%
D10*
%TO.P,R12,1*%
%TO.N,+5V*%
X172000000Y-92550000D03*
%TO.P,R12,2*%
%TO.N,Net-(U3B-J)*%
X172000000Y-89450000D03*
%TD*%
D24*
%TO.P,U7,1,GND*%
%TO.N,GND*%
X110195000Y-74690000D03*
D14*
%TO.P,U7,2,TR*%
%TO.N,Net-(U7-THR)*%
X110195000Y-77230000D03*
%TO.P,U7,3,Q*%
%TO.N,555*%
X110195000Y-79770000D03*
%TO.P,U7,4,R*%
%TO.N,+5V*%
X110195000Y-82310000D03*
%TO.P,U7,5,CV*%
%TO.N,unconnected-(U7-CV-Pad5)*%
X117815000Y-82310000D03*
%TO.P,U7,6,THR*%
%TO.N,Net-(U7-THR)*%
X117815000Y-79770000D03*
%TO.P,U7,7,DIS*%
%TO.N,Net-(U7-DIS)*%
X117815000Y-77230000D03*
%TO.P,U7,8,VCC*%
%TO.N,+5V*%
X117815000Y-74690000D03*
%TD*%
%TO.P,R1,1*%
%TO.N,Net-(D1-K)*%
X156000000Y-44080000D03*
%TO.P,R1,2*%
%TO.N,GND*%
X156000000Y-33920000D03*
%TD*%
D25*
%TO.P,U5,1,CA*%
%TO.N,+5V*%
X192532500Y-66982500D03*
D14*
%TO.P,U5,2,F*%
%TO.N,Net-(U5-F)*%
X192532500Y-69522500D03*
%TO.P,U5,3,G*%
%TO.N,Net-(U5-G)*%
X192532500Y-72062500D03*
%TO.P,U5,4,E*%
%TO.N,Net-(U5-E)*%
X192532500Y-74602500D03*
%TO.P,U5,5,D*%
%TO.N,Net-(U5-D)*%
X192532500Y-77142500D03*
%TO.P,U5,6,CA*%
%TO.N,+5V*%
X197612500Y-77142500D03*
%TO.P,U5,7,DP*%
%TO.N,unconnected-(U5-DP-Pad7)*%
X197612500Y-74602500D03*
%TO.P,U5,8,C*%
%TO.N,Net-(U5-C)*%
X197612500Y-72062500D03*
%TO.P,U5,9,B*%
%TO.N,Net-(U5-B)*%
X197612500Y-69522500D03*
%TO.P,U5,10,A*%
%TO.N,Net-(U5-A)*%
X197612500Y-66982500D03*
%TD*%
D13*
%TO.P,R5,1*%
%TO.N,Net-(U4-a)*%
X183950000Y-77000000D03*
%TO.P,R5,2*%
%TO.N,Net-(U5-A)*%
X187050000Y-77000000D03*
%TD*%
D19*
%TO.P,D1,1,K*%
%TO.N,Net-(D1-K)*%
X151000000Y-54540000D03*
D20*
%TO.P,D1,2,A*%
%TO.N,Q0*%
X151000000Y-52000000D03*
%TD*%
D13*
%TO.P,R17,1*%
%TO.N,Net-(U4-f)*%
X183450000Y-67000000D03*
%TO.P,R17,2*%
%TO.N,Net-(U5-F)*%
X186550000Y-67000000D03*
%TD*%
D10*
%TO.P,R20,1*%
%TO.N,Net-(U7-DIS)*%
X106000000Y-76550000D03*
%TO.P,R20,2*%
%TO.N,Net-(U7-THR)*%
X106000000Y-73450000D03*
%TD*%
%TO.P,R11,1*%
%TO.N,+5V*%
X168000000Y-92550000D03*
%TO.P,R11,2*%
%TO.N,Net-(U3A-J)*%
X168000000Y-89450000D03*
%TD*%
D21*
%TO.P,C1,1*%
%TO.N,VD*%
X120000000Y-41000000D03*
D14*
%TO.P,C1,2*%
%TO.N,GND*%
X120000000Y-39000000D03*
%TD*%
D19*
%TO.P,D2,1,K*%
%TO.N,Net-(D2-K)*%
X159000000Y-54540000D03*
D20*
%TO.P,D2,2,A*%
%TO.N,Q1*%
X159000000Y-52000000D03*
%TD*%
D13*
%TO.P,R16,1*%
%TO.N,Net-(U4-e)*%
X183500000Y-74000000D03*
%TO.P,R16,2*%
%TO.N,Net-(U5-E)*%
X186600000Y-74000000D03*
%TD*%
D14*
%TO.P,R3,1*%
%TO.N,Net-(D3-K)*%
X166000000Y-44080000D03*
%TO.P,R3,2*%
%TO.N,GND*%
X166000000Y-33920000D03*
%TD*%
D26*
%TO.P,SW1,1,A*%
%TO.N,GND*%
X151750000Y-100750000D03*
X158250000Y-100750000D03*
%TO.P,SW1,2,A*%
X151750000Y-105250000D03*
X158250000Y-105250000D03*
%TD*%
D27*
%TO.P,C5,1*%
%TO.N,Net-(U7-THR)*%
X122500000Y-81562500D03*
%TO.P,C5,2*%
%TO.N,GND*%
X122500000Y-78437500D03*
%TD*%
D14*
%TO.P,R2,1*%
%TO.N,Net-(D2-K)*%
X161000000Y-44080000D03*
%TO.P,R2,2*%
%TO.N,GND*%
X161000000Y-33920000D03*
%TD*%
D28*
%TO.P,L1,1,1*%
%TO.N,Net-(D4-K)*%
X141000000Y-51000000D03*
%TO.P,L1,2,2*%
%TO.N,+5V*%
X144000000Y-51000000D03*
%TD*%
D24*
%TO.P,C3,1*%
%TO.N,GND*%
X142544888Y-91500000D03*
D14*
%TO.P,C3,2*%
%TO.N,Net-(SW2-A)*%
X144544888Y-91500000D03*
%TD*%
D19*
%TO.P,D5,1,K*%
%TO.N,Net-(D5-K)*%
X176000000Y-54540000D03*
D20*
%TO.P,D5,2,A*%
%TO.N,Q3*%
X176000000Y-52000000D03*
%TD*%
D13*
%TO.P,R8,1*%
%TO.N,Net-(U4-c)*%
X183950000Y-84500000D03*
%TO.P,R8,2*%
%TO.N,Net-(U5-C)*%
X187050000Y-84500000D03*
%TD*%
D10*
%TO.P,R19,1*%
%TO.N,+5V*%
X106000000Y-83050000D03*
%TO.P,R19,2*%
%TO.N,Net-(U7-DIS)*%
X106000000Y-79950000D03*
%TD*%
D13*
%TO.P,R15,1*%
%TO.N,+5V*%
X183450000Y-63500000D03*
%TO.P,R15,2*%
%TO.N,Net-(U4-BI)*%
X186550000Y-63500000D03*
%TD*%
D29*
%TO.P,SW2,*%
%TO.N,*%
X125500000Y-73600000D03*
X125500000Y-65400000D03*
D30*
%TO.P,SW2,1,B*%
%TO.N,Clock*%
X125500000Y-71500000D03*
D31*
%TO.P,SW2,2,C*%
%TO.N,555*%
X125500000Y-69500000D03*
%TO.P,SW2,3,A*%
%TO.N,Net-(SW2-A)*%
X125500000Y-67500000D03*
%TD*%
D10*
%TO.P,R7,1*%
%TO.N,Clock*%
X155000000Y-92600000D03*
%TO.P,R7,2*%
%TO.N,+5V*%
X155000000Y-89500000D03*
%TD*%
D32*
%TO.N,VD*%
X130500000Y-51000000D03*
X135000000Y-51000000D03*
%TO.N,GND*%
X130000000Y-70000000D03*
X130000000Y-78000000D03*
%TO.N,+5V*%
X132500000Y-63000000D03*
X146565686Y-57565686D03*
X106000000Y-84700000D03*
X132500001Y-67520312D03*
X153000000Y-64000000D03*
X153500000Y-87500000D03*
X197500000Y-79000000D03*
X163000000Y-61000000D03*
X170500000Y-63000000D03*
X152000000Y-60000000D03*
X189500000Y-67000000D03*
X121000000Y-76000000D03*
X145000000Y-56000000D03*
X128000000Y-63000000D03*
X164700000Y-62500000D03*
X106000000Y-87500000D03*
%TO.N,Net-(SW2-A)*%
X129000000Y-70000000D03*
X129000000Y-75000000D03*
%TO.N,Net-(U7-THR)*%
X103500000Y-72500000D03*
X115500000Y-83000000D03*
X121000000Y-83500000D03*
X103500000Y-86000000D03*
%TO.N,Q0*%
X170500000Y-83000000D03*
X148000000Y-71000000D03*
%TO.N,Q1*%
X140500000Y-60500000D03*
X147500000Y-60500000D03*
%TO.N,Q2*%
X157000000Y-60000000D03*
X162000000Y-60000000D03*
X165000000Y-65500000D03*
X164500000Y-60000000D03*
X165000000Y-70000000D03*
X164500000Y-57000000D03*
%TO.N,Q3*%
X131000000Y-70500000D03*
X166500000Y-58200000D03*
X165500000Y-66500000D03*
X160000000Y-65500000D03*
%TO.N,Net-(U5-A)*%
X189500000Y-80500000D03*
X193500000Y-82000000D03*
%TO.N,Net-(U5-B)*%
X189000000Y-82000000D03*
X193500000Y-83500000D03*
%TO.N,Clock*%
X146000000Y-88000000D03*
X146000000Y-73500000D03*
%TO.N,Net-(U5-C)*%
X190000000Y-85000000D03*
X195500000Y-85500000D03*
%TO.N,Net-(U4-BI)*%
X186500000Y-60500000D03*
X173500000Y-66000000D03*
%TO.N,Net-(U4-e)*%
X179000000Y-83500000D03*
X181500000Y-74500000D03*
%TO.N,555*%
X108000000Y-77000000D03*
X108500000Y-71000000D03*
%TO.N,Reset*%
X146500000Y-72000000D03*
X134700000Y-69000000D03*
X139000000Y-69500000D03*
X143700000Y-72000000D03*
%TD*%
D33*
%TO.N,Net-(U4-g)*%
X182950000Y-70000000D02*
X183450000Y-70500000D01*
X177620000Y-70000000D02*
X182950000Y-70000000D01*
X175810000Y-68190000D02*
X177620000Y-70000000D01*
%TO.N,+5V*%
X164000000Y-92550000D02*
X168000000Y-92550000D01*
X159500000Y-92550000D02*
X164000000Y-92550000D01*
D34*
%TO.N,Net-(U3B-J)*%
X162810000Y-78350000D02*
X162810000Y-75810000D01*
%TO.N,Net-(U3A-J)*%
X155190000Y-75810000D02*
X155190000Y-73270000D01*
%TO.N,Net-(U2B-J)*%
X149810000Y-78350000D02*
X149810000Y-75810000D01*
%TO.N,GND*%
X148953951Y-74709000D02*
X151988232Y-74709000D01*
X151988232Y-74709000D02*
X155190000Y-77910768D01*
X148309000Y-75353951D02*
X148953951Y-74709000D01*
X148309000Y-79389000D02*
X148309000Y-75353951D01*
X149810000Y-80890000D02*
X148309000Y-79389000D01*
X155190000Y-77910768D02*
X155190000Y-78350000D01*
D33*
%TO.N,VD*%
X123500000Y-51000000D02*
X130500000Y-51000000D01*
X135000000Y-51000000D02*
X135000000Y-48620000D01*
X135000000Y-48620000D02*
X135310000Y-48310000D01*
X120000000Y-41000000D02*
X123500000Y-44500000D01*
X122620000Y-61000000D02*
X135310000Y-48310000D01*
X123500000Y-44500000D02*
X123500000Y-51000000D01*
X111117500Y-61000000D02*
X122620000Y-61000000D01*
%TO.N,GND*%
X158250000Y-105250000D02*
X155000000Y-102000000D01*
X120000000Y-42251000D02*
X119152708Y-42251000D01*
X155000000Y-102000000D02*
X155000000Y-97500000D01*
X110195000Y-72805000D02*
X110500000Y-72500000D01*
X151750000Y-100750000D02*
X148500000Y-97500000D01*
X110195000Y-74690000D02*
X110195000Y-72805000D01*
X111117500Y-56000000D02*
X116000000Y-56000000D01*
X136000000Y-89500000D02*
X122000000Y-89500000D01*
X118749000Y-39119630D02*
X118868630Y-39000000D01*
X124000000Y-78500000D02*
X123937500Y-78437500D01*
X131362500Y-68000000D02*
X130000000Y-68000000D01*
X125500000Y-78000000D02*
X125000000Y-78500000D01*
X110500000Y-72500000D02*
X122500000Y-72500000D01*
X142000000Y-35000000D02*
X146000000Y-39000000D01*
X138000000Y-91500000D02*
X136000000Y-89500000D01*
X120000000Y-39000000D02*
X123460000Y-39000000D01*
X142544888Y-91500000D02*
X138000000Y-91500000D01*
X116000000Y-56000000D02*
X120000000Y-52000000D01*
X119152708Y-42251000D02*
X118749000Y-41847292D01*
X138850000Y-35000000D02*
X142000000Y-35000000D01*
X130000000Y-68000000D02*
X130000000Y-70000000D01*
X155000000Y-97500000D02*
X148500000Y-97500000D01*
X151750000Y-105250000D02*
X136000000Y-89500000D01*
X118868630Y-39000000D02*
X120000000Y-39000000D01*
X122500000Y-72500000D02*
X122500000Y-78437500D01*
X130000000Y-78000000D02*
X125500000Y-78000000D01*
X120000000Y-52000000D02*
X120000000Y-42251000D01*
X125000000Y-78500000D02*
X124000000Y-78500000D01*
X148500000Y-97500000D02*
X142544888Y-91544888D01*
X123460000Y-39000000D02*
X127690000Y-43230000D01*
X118749000Y-41847292D02*
X118749000Y-39119630D01*
X115562500Y-89500000D02*
X122000000Y-89500000D01*
X125000000Y-86500000D02*
X125000000Y-78500000D01*
X142544888Y-91544888D02*
X142544888Y-91500000D01*
X158250000Y-100750000D02*
X155000000Y-97500000D01*
X123937500Y-78437500D02*
X122500000Y-78437500D01*
X122000000Y-89500000D02*
X125000000Y-86500000D01*
%TO.N,+5V*%
X119500000Y-75000000D02*
X119500000Y-84500000D01*
X175810000Y-63110000D02*
X176110000Y-63110000D01*
X106000000Y-84700000D02*
X106000000Y-83050000D01*
X197500000Y-77255000D02*
X197612500Y-77142500D01*
X117815000Y-74690000D02*
X119190000Y-74690000D01*
X119500000Y-75000000D02*
X120000000Y-75000000D01*
X119500000Y-84500000D02*
X107450000Y-84500000D01*
X197500000Y-79000000D02*
X197500000Y-77255000D01*
X192532500Y-63032500D02*
X188500000Y-59000000D01*
X132979689Y-68000000D02*
X132500001Y-67520312D01*
X188500000Y-59000000D02*
X183500000Y-59000000D01*
X164700000Y-62500000D02*
X163420000Y-62500000D01*
X144000000Y-53000000D02*
X144000000Y-51000000D01*
X128000000Y-63000000D02*
X132500000Y-63000000D01*
X107450000Y-84500000D02*
X106000000Y-83050000D01*
X162810000Y-61190000D02*
X163000000Y-61000000D01*
X132500000Y-58500000D02*
X137500000Y-53500000D01*
X192532500Y-66982500D02*
X192532500Y-63032500D01*
X127690000Y-40690000D02*
X134059000Y-47059000D01*
X192532500Y-66982500D02*
X189517500Y-66982500D01*
X162810000Y-63110000D02*
X162810000Y-61190000D01*
X143500000Y-53500000D02*
X143500000Y-54500000D01*
X176500000Y-63500000D02*
X183450000Y-63500000D01*
X144000000Y-43000000D02*
X146000000Y-41000000D01*
X175810000Y-63110000D02*
X170610000Y-63110000D01*
X133637500Y-68000000D02*
X132979689Y-68000000D01*
X112437500Y-89500000D02*
X108000000Y-89500000D01*
X176110000Y-63110000D02*
X176500000Y-63500000D01*
X152000000Y-60000000D02*
X150620000Y-60000000D01*
X172000000Y-92550000D02*
X168000000Y-92550000D01*
X156450000Y-89500000D02*
X159500000Y-92550000D01*
X149810000Y-60810000D02*
X149810000Y-63110000D01*
X150620000Y-60000000D02*
X149810000Y-60810000D01*
X170610000Y-63110000D02*
X170500000Y-63000000D01*
X183450000Y-59050000D02*
X183450000Y-63500000D01*
X153000000Y-64000000D02*
X150700000Y-64000000D01*
X120000000Y-75000000D02*
X121000000Y-76000000D01*
X155000000Y-89000000D02*
X153500000Y-87500000D01*
X143500000Y-53500000D02*
X144000000Y-53000000D01*
X134059000Y-47059000D02*
X136228181Y-47059000D01*
X163420000Y-62500000D02*
X162810000Y-63110000D01*
X132500000Y-63000000D02*
X132500000Y-58500000D01*
X136228181Y-47059000D02*
X137500000Y-48330819D01*
X150700000Y-64000000D02*
X149810000Y-63110000D01*
X183500000Y-59000000D02*
X183450000Y-59050000D01*
X137500000Y-48330819D02*
X137500000Y-53500000D01*
X106740000Y-82310000D02*
X106000000Y-83050000D01*
X155000000Y-89500000D02*
X156450000Y-89500000D01*
X143500000Y-54500000D02*
X145000000Y-56000000D01*
X155000000Y-89500000D02*
X155000000Y-89000000D01*
X108000000Y-89500000D02*
X106000000Y-87500000D01*
X110195000Y-82310000D02*
X106740000Y-82310000D01*
X144000000Y-51000000D02*
X144000000Y-43000000D01*
X189517500Y-66982500D02*
X189500000Y-67000000D01*
X137500000Y-53500000D02*
X143500000Y-53500000D01*
X119190000Y-74690000D02*
X119500000Y-75000000D01*
X146565686Y-57565686D02*
X149810000Y-60810000D01*
%TO.N,Net-(SW2-A)*%
X129000000Y-75000000D02*
X144544888Y-90544888D01*
X151000000Y-89450000D02*
X146594888Y-89450000D01*
X146594888Y-89450000D02*
X144544888Y-91500000D01*
X125500000Y-67500000D02*
X126500000Y-67500000D01*
X144544888Y-90544888D02*
X144544888Y-91500000D01*
X126500000Y-67500000D02*
X129000000Y-70000000D01*
%TO.N,Net-(U7-THR)*%
X122500000Y-85500000D02*
X104000000Y-85500000D01*
X104000000Y-85500000D02*
X103500000Y-86000000D01*
X121000000Y-83500000D02*
X121000000Y-83062500D01*
X110195000Y-77230000D02*
X106415000Y-73450000D01*
X105050000Y-72500000D02*
X106000000Y-73450000D01*
X117815000Y-79770000D02*
X115500000Y-82085000D01*
X106415000Y-73450000D02*
X106000000Y-73450000D01*
X103500000Y-72500000D02*
X105050000Y-72500000D01*
X122500000Y-81562500D02*
X122500000Y-85500000D01*
X115500000Y-82085000D02*
X115500000Y-83000000D01*
X121000000Y-83062500D02*
X122500000Y-81562500D01*
%TO.N,Net-(D1-K)*%
X156000000Y-44080000D02*
X156000000Y-49540000D01*
X156000000Y-49540000D02*
X151000000Y-54540000D01*
%TO.N,Q0*%
X148270000Y-70730000D02*
X148000000Y-71000000D01*
X142190000Y-63110000D02*
X149810000Y-70730000D01*
X170500000Y-80660000D02*
X168190000Y-78350000D01*
X170500000Y-83000000D02*
X170500000Y-80660000D01*
X142190000Y-60810000D02*
X142190000Y-63110000D01*
X151000000Y-52000000D02*
X142190000Y-60810000D01*
X149810000Y-70730000D02*
X148270000Y-70730000D01*
%TO.N,Q1*%
X150150000Y-65650000D02*
X152690000Y-68190000D01*
X160869181Y-59000000D02*
X168000000Y-59000000D01*
X149810000Y-65650000D02*
X150150000Y-65650000D01*
X168000000Y-59000000D02*
X168000000Y-59500000D01*
X159000000Y-52000000D02*
X157649000Y-53351000D01*
X131362500Y-67050000D02*
X137912500Y-60500000D01*
X157649000Y-53351000D02*
X157649000Y-55779819D01*
X147500000Y-60500000D02*
X147500000Y-63340000D01*
X168000000Y-59500000D02*
X168190000Y-59690000D01*
X157649000Y-55779819D02*
X160869181Y-59000000D01*
X152690000Y-68190000D02*
X155190000Y-68190000D01*
X147500000Y-63340000D02*
X149810000Y-65650000D01*
X155190000Y-68190000D02*
X160869181Y-62510819D01*
X168190000Y-59690000D02*
X168190000Y-63110000D01*
X137912500Y-60500000D02*
X140500000Y-60500000D01*
X160869181Y-62510819D02*
X160869181Y-59000000D01*
%TO.N,Net-(D2-K)*%
X161000000Y-52540000D02*
X159000000Y-54540000D01*
X161000000Y-44080000D02*
X161000000Y-52540000D01*
%TO.N,Net-(D3-K)*%
X169460000Y-54540000D02*
X167000000Y-54540000D01*
X170000000Y-49500000D02*
X170000000Y-54000000D01*
X166000000Y-44080000D02*
X166000000Y-45500000D01*
X170000000Y-54000000D02*
X169460000Y-54540000D01*
X166000000Y-45500000D02*
X170000000Y-49500000D01*
%TO.N,Q2*%
X164270000Y-70730000D02*
X165000000Y-70000000D01*
X162810000Y-70730000D02*
X164270000Y-70730000D01*
X165500000Y-61000000D02*
X165500000Y-64500000D01*
X164500000Y-54500000D02*
X164500000Y-57000000D01*
X165500000Y-64500000D02*
X167040000Y-64500000D01*
X165000000Y-65500000D02*
X165500000Y-65000000D01*
X167040000Y-64500000D02*
X168190000Y-65650000D01*
X167000000Y-52000000D02*
X164500000Y-54500000D01*
X155190000Y-63110000D02*
X155190000Y-61810000D01*
X165500000Y-65000000D02*
X165500000Y-64500000D01*
X155190000Y-61810000D02*
X157000000Y-60000000D01*
X164500000Y-60000000D02*
X165500000Y-61000000D01*
X162000000Y-60000000D02*
X164500000Y-60000000D01*
%TO.N,Net-(D4-K)*%
X138500000Y-43500000D02*
X137500000Y-43500000D01*
X137500000Y-43500000D02*
X137230000Y-43230000D01*
X138500000Y-38500000D02*
X138500000Y-43500000D01*
X126000000Y-38000000D02*
X138000000Y-38000000D01*
X126150000Y-35000000D02*
X126150000Y-37850000D01*
X126150000Y-37850000D02*
X126000000Y-38000000D01*
X141000000Y-51000000D02*
X141000000Y-48920000D01*
X137230000Y-43230000D02*
X135310000Y-43230000D01*
X141000000Y-48920000D02*
X135310000Y-43230000D01*
X138000000Y-38000000D02*
X138500000Y-38500000D01*
%TO.N,Q3*%
X177351000Y-53351000D02*
X177351000Y-55891000D01*
X165500000Y-66500000D02*
X163660000Y-66500000D01*
X131362500Y-70137500D02*
X131000000Y-70500000D01*
X175742000Y-57500000D02*
X166500000Y-57500000D01*
X166000000Y-74000000D02*
X167810000Y-75810000D01*
X162660000Y-65500000D02*
X162810000Y-65650000D01*
X176000000Y-52000000D02*
X177351000Y-53351000D01*
X165500000Y-66500000D02*
X166000000Y-67000000D01*
X163660000Y-66500000D02*
X162810000Y-65650000D01*
X177351000Y-55891000D02*
X175742000Y-57500000D01*
X160000000Y-65500000D02*
X162660000Y-65500000D01*
X166000000Y-67000000D02*
X166000000Y-74000000D01*
X167810000Y-75810000D02*
X168190000Y-75810000D01*
X166500000Y-57500000D02*
X166500000Y-58200000D01*
X131362500Y-68950000D02*
X131362500Y-70137500D01*
%TO.N,Net-(D5-K)*%
X171000000Y-54000000D02*
X171540000Y-54540000D01*
X171540000Y-54540000D02*
X176000000Y-54540000D01*
X171000000Y-44080000D02*
X171000000Y-54000000D01*
%TO.N,Net-(U5-A)*%
X194000000Y-82000000D02*
X193500000Y-82000000D01*
X194000000Y-70595000D02*
X194000000Y-82000000D01*
X189500000Y-79950000D02*
X187050000Y-77500000D01*
X189500000Y-80500000D02*
X189500000Y-79950000D01*
X197612500Y-66982500D02*
X194000000Y-70595000D01*
%TO.N,Net-(U4-a)*%
X175810000Y-70730000D02*
X182580000Y-77500000D01*
X182580000Y-77500000D02*
X183950000Y-77500000D01*
%TO.N,Net-(U4-b)*%
X175810000Y-73270000D02*
X176220000Y-73270000D01*
X176220000Y-73270000D02*
X183950000Y-81000000D01*
%TO.N,Net-(U5-B)*%
X189000000Y-82000000D02*
X188050000Y-82000000D01*
X194793182Y-70793182D02*
X194793182Y-82706818D01*
X194500000Y-83000000D02*
X194000000Y-83500000D01*
X194793182Y-82706818D02*
X194500000Y-83000000D01*
X196063864Y-69522500D02*
X194793182Y-70793182D01*
X194000000Y-83500000D02*
X193500000Y-83500000D01*
X188050000Y-82000000D02*
X187050000Y-81000000D01*
X197612500Y-69522500D02*
X196063864Y-69522500D01*
%TO.N,Clock*%
X155000000Y-92600000D02*
X152326000Y-89926000D01*
X152326000Y-88752708D02*
X151573292Y-88000000D01*
X135500000Y-69500000D02*
X135500000Y-68345900D01*
X152326000Y-89926000D02*
X152326000Y-88752708D01*
X125500000Y-71500000D02*
X133500000Y-71500000D01*
X144500000Y-73000000D02*
X144500000Y-68500000D01*
X142190000Y-68190000D02*
X135655900Y-68190000D01*
X135655900Y-68190000D02*
X135500000Y-68345900D01*
X144190000Y-68190000D02*
X142190000Y-68190000D01*
X144500000Y-68500000D02*
X144190000Y-68190000D01*
X135500000Y-68345900D02*
X134204100Y-67050000D01*
X134204100Y-67050000D02*
X133637500Y-67050000D01*
X145500000Y-73000000D02*
X144500000Y-73000000D01*
X133500000Y-71500000D02*
X135500000Y-69500000D01*
X146000000Y-73500000D02*
X145500000Y-73000000D01*
X151573292Y-88000000D02*
X146000000Y-88000000D01*
%TO.N,Net-(U5-C)*%
X195562500Y-72062500D02*
X195500000Y-72000000D01*
X187550000Y-85000000D02*
X187050000Y-84500000D01*
X197612500Y-72062500D02*
X195562500Y-72062500D01*
X195500000Y-72000000D02*
X195500000Y-85500000D01*
X190000000Y-85000000D02*
X187550000Y-85000000D01*
%TO.N,Net-(U4-c)*%
X175810000Y-75810000D02*
X183950000Y-83950000D01*
X183950000Y-83950000D02*
X183950000Y-84500000D01*
%TO.N,Net-(U2A-J)*%
X145000000Y-85000000D02*
X145000000Y-74000000D01*
X142190000Y-74810000D02*
X143000000Y-74000000D01*
X157500000Y-86500000D02*
X146500000Y-86500000D01*
X159500000Y-88500000D02*
X157500000Y-86500000D01*
X142920000Y-74000000D02*
X142190000Y-73270000D01*
X143000000Y-74000000D02*
X142920000Y-74000000D01*
X142190000Y-75810000D02*
X142190000Y-74810000D01*
X159500000Y-89450000D02*
X159500000Y-88500000D01*
X145000000Y-74000000D02*
X143000000Y-74000000D01*
X146500000Y-86500000D02*
X145000000Y-85000000D01*
%TO.N,Net-(U2B-J)*%
X158675000Y-85000000D02*
X152500000Y-85000000D01*
X150000000Y-76000000D02*
X149810000Y-75810000D01*
X152500000Y-76000000D02*
X150000000Y-76000000D01*
X152500000Y-85000000D02*
X152500000Y-76000000D01*
X163125000Y-89450000D02*
X158675000Y-85000000D01*
X164000000Y-89450000D02*
X163125000Y-89450000D01*
%TO.N,Net-(U3A-J)*%
X158770000Y-73270000D02*
X155190000Y-73270000D01*
X168000000Y-89450000D02*
X163550000Y-85000000D01*
X160000000Y-85000000D02*
X160000000Y-73500000D01*
X163550000Y-85000000D02*
X160000000Y-85000000D01*
X159000000Y-73500000D02*
X158770000Y-73270000D01*
X160000000Y-73500000D02*
X159000000Y-73500000D01*
%TO.N,Net-(U3B-J)*%
X166500000Y-86500000D02*
X166500000Y-76000000D01*
X166500000Y-76000000D02*
X166310000Y-75810000D01*
X166310000Y-75810000D02*
X162810000Y-75810000D01*
X172000000Y-86500000D02*
X166500000Y-86500000D01*
X172000000Y-89450000D02*
X172000000Y-86500000D01*
%TO.N,Net-(U5-D)*%
X192532500Y-77142500D02*
X192532500Y-84517500D01*
X192532500Y-84517500D02*
X187050000Y-90000000D01*
%TO.N,Net-(U4-d)*%
X183950000Y-86523292D02*
X183950000Y-90000000D01*
X175810000Y-78383292D02*
X183950000Y-86523292D01*
X175810000Y-78350000D02*
X175810000Y-78383292D01*
%TO.N,Net-(U4-BI)*%
X173500000Y-66000000D02*
X171310000Y-68190000D01*
X168190000Y-70730000D02*
X170770000Y-70730000D01*
X170770000Y-70730000D02*
X171000000Y-70500000D01*
X170730000Y-73270000D02*
X171000000Y-73000000D01*
X186550000Y-63500000D02*
X186550000Y-60550000D01*
X171000000Y-70500000D02*
X171000000Y-68500000D01*
X186550000Y-60550000D02*
X186500000Y-60500000D01*
X171000000Y-68500000D02*
X171310000Y-68190000D01*
X168190000Y-73270000D02*
X170730000Y-73270000D01*
X171310000Y-68190000D02*
X168190000Y-68190000D01*
X171000000Y-73000000D02*
X171000000Y-70500000D01*
%TO.N,Net-(U4-e)*%
X179000000Y-84000000D02*
X179000000Y-83500000D01*
X175810000Y-82810000D02*
X178000000Y-85000000D01*
X181500000Y-74500000D02*
X183000000Y-74500000D01*
X175810000Y-80890000D02*
X175810000Y-82810000D01*
X178000000Y-85000000D02*
X179000000Y-84000000D01*
X183000000Y-74500000D02*
X183500000Y-74000000D01*
%TO.N,Net-(U5-E)*%
X187202500Y-74602500D02*
X186600000Y-74000000D01*
X192532500Y-74602500D02*
X187202500Y-74602500D01*
%TO.N,Net-(U4-f)*%
X175810000Y-65650000D02*
X182100000Y-65650000D01*
X182100000Y-65650000D02*
X183450000Y-67000000D01*
%TO.N,Net-(U5-F)*%
X189072500Y-69522500D02*
X186550000Y-67000000D01*
X192532500Y-69522500D02*
X189072500Y-69522500D01*
%TO.N,Net-(U5-G)*%
X192532500Y-72062500D02*
X188112500Y-72062500D01*
X188112500Y-72062500D02*
X186550000Y-70500000D01*
%TO.N,Net-(U7-DIS)*%
X117815000Y-77230000D02*
X114024000Y-81021000D01*
X106000000Y-76550000D02*
X106000000Y-79950000D01*
X107071000Y-81021000D02*
X106000000Y-79950000D01*
X114024000Y-81021000D02*
X107071000Y-81021000D01*
%TO.N,555*%
X110195000Y-79770000D02*
X108270000Y-79770000D01*
X108500000Y-71000000D02*
X110000000Y-69500000D01*
X108270000Y-79770000D02*
X108000000Y-79500000D01*
X110000000Y-69500000D02*
X125500000Y-69500000D01*
X108000000Y-79500000D02*
X108000000Y-77000000D01*
%TO.N,Reset*%
X142430000Y-70730000D02*
X143700000Y-72000000D01*
X152770000Y-70730000D02*
X155190000Y-70730000D01*
X149810000Y-73270000D02*
X150230000Y-73270000D01*
X142190000Y-70730000D02*
X142430000Y-70730000D01*
X134650000Y-68950000D02*
X134700000Y-69000000D01*
X139000000Y-69500000D02*
X140960000Y-69500000D01*
X146500000Y-72000000D02*
X148540000Y-72000000D01*
X150230000Y-73270000D02*
X152770000Y-70730000D01*
X140960000Y-69500000D02*
X142190000Y-70730000D01*
X148540000Y-72000000D02*
X149810000Y-73270000D01*
X155190000Y-70730000D02*
X160270000Y-70730000D01*
X160270000Y-70730000D02*
X162810000Y-73270000D01*
X133637500Y-68950000D02*
X134650000Y-68950000D01*
%TD*%
M02*
