%TF.GenerationSoftware,KiCad,Pcbnew,9.0.3*%
%TF.CreationDate,2025-12-16T11:32:59+01:00*%
%TF.ProjectId,PTP_project1,5054505f-7072-46f6-9a65-6374312e6b69,rev?*%
%TF.SameCoordinates,Original*%
%TF.FileFunction,Soldermask,Bot*%
%TF.FilePolarity,Negative*%
%FSLAX46Y46*%
G04 Gerber Fmt 4.6, Leading zero omitted, Abs format (unit mm)*
G04 Created by KiCad (PCBNEW 9.0.3) date 2025-12-16 11:32:59*
%MOMM*%
%LPD*%
G01*
G04 APERTURE LIST*
G04 Aperture macros list*
%AMRoundRect*
0 Rectangle with rounded corners*
0 $1 Rounding radius*
0 $2 $3 $4 $5 $6 $7 $8 $9 X,Y pos of 4 corners*
0 Add a 4 corners polygon primitive as box body*
4,1,4,$2,$3,$4,$5,$6,$7,$8,$9,$2,$3,0*
0 Add four circle primitives for the rounded corners*
1,1,$1+$1,$2,$3*
1,1,$1+$1,$4,$5*
1,1,$1+$1,$6,$7*
1,1,$1+$1,$8,$9*
0 Add four rect primitives between the rounded corners*
20,1,$1+$1,$2,$3,$4,$5,0*
20,1,$1+$1,$4,$5,$6,$7,0*
20,1,$1+$1,$6,$7,$8,$9,0*
20,1,$1+$1,$8,$9,$2,$3,0*%
G04 Aperture macros list end*
%ADD10C,5.500000*%
%ADD11RoundRect,0.250000X-0.950000X-0.550000X0.950000X-0.550000X0.950000X0.550000X-0.950000X0.550000X0*%
%ADD12O,2.400000X1.600000*%
%ADD13C,1.600000*%
%ADD14RoundRect,0.249999X-0.850001X-0.850001X0.850001X-0.850001X0.850001X0.850001X-0.850001X0.850001X0*%
%ADD15C,2.200000*%
%ADD16R,1.800000X1.800000*%
%ADD17C,1.800000*%
%ADD18RoundRect,0.250000X0.550000X-0.550000X0.550000X0.550000X-0.550000X0.550000X-0.550000X-0.550000X0*%
%ADD19RoundRect,0.250001X1.149999X-1.149999X1.149999X1.149999X-1.149999X1.149999X-1.149999X-1.149999X0*%
%ADD20C,2.800000*%
%ADD21RoundRect,0.250000X-0.550000X-0.550000X0.550000X-0.550000X0.550000X0.550000X-0.550000X0.550000X0*%
%ADD22R,1.600000X1.600000*%
%ADD23C,2.000000*%
%ADD24C,2.400000*%
%ADD25O,3.500000X2.200000*%
%ADD26R,2.500000X1.500000*%
%ADD27O,2.500000X1.500000*%
G04 APERTURE END LIST*
D10*
%TO.C,H4*%
X192000000Y-100000000D03*
%TD*%
D11*
%TO.C,U2*%
X142190000Y-63110000D03*
D12*
X142190000Y-65650000D03*
X142190000Y-68190000D03*
X142190000Y-70730000D03*
X142190000Y-73270000D03*
X142190000Y-75810000D03*
X142190000Y-78350000D03*
X142190000Y-80890000D03*
X149810000Y-80890000D03*
X149810000Y-78350000D03*
X149810000Y-75810000D03*
X149810000Y-73270000D03*
X149810000Y-70730000D03*
X149810000Y-68190000D03*
X149810000Y-65650000D03*
X149810000Y-63110000D03*
%TD*%
D13*
%TO.C,R4*%
X171000000Y-44080000D03*
X171000000Y-33920000D03*
%TD*%
D14*
%TO.C,D4*%
X126150000Y-35000000D03*
D15*
X138850000Y-35000000D03*
%TD*%
D11*
%TO.C,U1*%
X127690000Y-40690000D03*
D12*
X127690000Y-43230000D03*
X127690000Y-45770000D03*
X127690000Y-48310000D03*
X135310000Y-48310000D03*
X135310000Y-45770000D03*
X135310000Y-43230000D03*
X135310000Y-40690000D03*
%TD*%
D11*
%TO.C,U3*%
X155190000Y-63110000D03*
D12*
X155190000Y-65650000D03*
X155190000Y-68190000D03*
X155190000Y-70730000D03*
X155190000Y-73270000D03*
X155190000Y-75810000D03*
X155190000Y-78350000D03*
X155190000Y-80890000D03*
X162810000Y-80890000D03*
X162810000Y-78350000D03*
X162810000Y-75810000D03*
X162810000Y-73270000D03*
X162810000Y-70730000D03*
X162810000Y-68190000D03*
X162810000Y-65650000D03*
X162810000Y-63110000D03*
%TD*%
D16*
%TO.C,D3*%
X167000000Y-54540000D03*
D17*
X167000000Y-52000000D03*
%TD*%
D11*
%TO.C,U4*%
X168190000Y-63110000D03*
D12*
X168190000Y-65650000D03*
X168190000Y-68190000D03*
X168190000Y-70730000D03*
X168190000Y-73270000D03*
X168190000Y-75810000D03*
X168190000Y-78350000D03*
X168190000Y-80890000D03*
X175810000Y-80890000D03*
X175810000Y-78350000D03*
X175810000Y-75810000D03*
X175810000Y-73270000D03*
X175810000Y-70730000D03*
X175810000Y-68190000D03*
X175810000Y-65650000D03*
X175810000Y-63110000D03*
%TD*%
D18*
%TO.C,C2*%
X146000000Y-41000000D03*
D13*
X146000000Y-39000000D03*
%TD*%
D19*
%TO.C,J1*%
X111117500Y-61000000D03*
D20*
X111117500Y-56000000D03*
%TD*%
D10*
%TO.C,H2*%
X192000000Y-40000000D03*
%TD*%
D21*
%TO.C,U7*%
X110195000Y-74690000D03*
D13*
X110195000Y-77230000D03*
X110195000Y-79770000D03*
X110195000Y-82310000D03*
X117815000Y-82310000D03*
X117815000Y-79770000D03*
X117815000Y-77230000D03*
X117815000Y-74690000D03*
%TD*%
%TO.C,R1*%
X156000000Y-44080000D03*
X156000000Y-33920000D03*
%TD*%
D22*
%TO.C,U5*%
X192532500Y-66982500D03*
D13*
X192532500Y-69522500D03*
X192532500Y-72062500D03*
X192532500Y-74602500D03*
X192532500Y-77142500D03*
X197612500Y-77142500D03*
X197612500Y-74602500D03*
X197612500Y-72062500D03*
X197612500Y-69522500D03*
X197612500Y-66982500D03*
%TD*%
D10*
%TO.C,H3*%
X110000000Y-100000000D03*
%TD*%
D16*
%TO.C,D1*%
X151000000Y-54540000D03*
D17*
X151000000Y-52000000D03*
%TD*%
D18*
%TO.C,C1*%
X120000000Y-41000000D03*
D13*
X120000000Y-39000000D03*
%TD*%
D16*
%TO.C,D2*%
X159000000Y-54540000D03*
D17*
X159000000Y-52000000D03*
%TD*%
D13*
%TO.C,R3*%
X166000000Y-44080000D03*
X166000000Y-33920000D03*
%TD*%
D23*
%TO.C,SW1*%
X151750000Y-100750000D03*
X158250000Y-100750000D03*
X151750000Y-105250000D03*
X158250000Y-105250000D03*
%TD*%
D13*
%TO.C,R2*%
X161000000Y-44080000D03*
X161000000Y-33920000D03*
%TD*%
D24*
%TO.C,L1*%
X141000000Y-51000000D03*
X144000000Y-51000000D03*
%TD*%
D21*
%TO.C,C3*%
X142544888Y-91500000D03*
D13*
X144544888Y-91500000D03*
%TD*%
D16*
%TO.C,D5*%
X176000000Y-54540000D03*
D17*
X176000000Y-52000000D03*
%TD*%
D10*
%TO.C,H1*%
X110000000Y-40000000D03*
%TD*%
D25*
%TO.C,SW2*%
X125500000Y-73600000D03*
X125500000Y-65400000D03*
D26*
X125500000Y-71500000D03*
D27*
X125500000Y-69500000D03*
X125500000Y-67500000D03*
%TD*%
M02*
