M48
; DRILL file {KiCad 9.0.3} date 2025-12-16T11:32:47+0100
; FORMAT={-:-/ absolute / metric / decimal}
; #@! TF.CreationDate,2025-12-16T11:32:47+01:00
; #@! TF.GenerationSoftware,Kicad,Pcbnew,9.0.3
; #@! TF.FileFunction,MixedPlating,1,2
FMAT,2
METRIC
; #@! TA.AperFunction,Plated,PTH,ViaDrill
T1C0.300
; #@! TA.AperFunction,Plated,PTH,ComponentDrill
T2C0.800
; #@! TA.AperFunction,Plated,PTH,ComponentDrill
T3C0.900
; #@! TA.AperFunction,Plated,PTH,ComponentDrill
T4C1.100
; #@! TA.AperFunction,Plated,PTH,ComponentDrill
T5C1.200
; #@! TA.AperFunction,Plated,PTH,ComponentDrill
T6C1.400
; #@! TA.AperFunction,Plated,PTH,ComponentDrill
T7C1.500
; #@! TA.AperFunction,NonPlated,NPTH,ComponentDrill
T8C5.500
%
G90
G05
T1
X103.5Y-72.5
X103.5Y-86.0
X106.0Y-84.7
X106.0Y-87.5
X108.0Y-77.0
X108.5Y-71.0
X115.5Y-83.0
X121.0Y-76.0
X121.0Y-83.5
X128.0Y-63.0
X129.0Y-70.0
X129.0Y-75.0
X130.0Y-70.0
X130.0Y-78.0
X130.5Y-51.0
X131.0Y-70.5
X132.5Y-63.0
X132.5Y-67.52
X134.7Y-69.0
X135.0Y-51.0
X139.0Y-69.5
X140.5Y-60.5
X143.7Y-72.0
X145.0Y-56.0
X146.0Y-73.5
X146.0Y-88.0
X146.5Y-72.0
X146.566Y-57.566
X147.5Y-60.5
X148.0Y-71.0
X152.0Y-60.0
X153.0Y-64.0
X153.5Y-87.5
X157.0Y-60.0
X160.0Y-65.5
X162.0Y-60.0
X163.0Y-61.0
X164.5Y-57.0
X164.5Y-60.0
X164.7Y-62.5
X165.0Y-65.5
X165.0Y-70.0
X165.5Y-66.5
X166.5Y-58.2
X170.5Y-63.0
X170.5Y-83.0
X173.5Y-66.0
X179.0Y-83.5
X181.5Y-74.5
X186.5Y-60.5
X189.0Y-82.0
X189.5Y-67.0
X189.5Y-80.5
X190.0Y-85.0
X193.5Y-82.0
X193.5Y-83.5
X195.5Y-85.5
X197.5Y-79.0
T2
X110.195Y-74.69
X110.195Y-77.23
X110.195Y-79.77
X110.195Y-82.31
X117.815Y-74.69
X117.815Y-77.23
X117.815Y-79.77
X117.815Y-82.31
X120.0Y-39.0
X120.0Y-41.0
X125.5Y-67.5
X125.5Y-69.5
X125.5Y-71.5
X127.69Y-40.69
X127.69Y-43.23
X127.69Y-45.77
X127.69Y-48.31
X135.31Y-40.69
X135.31Y-43.23
X135.31Y-45.77
X135.31Y-48.31
X142.19Y-63.11
X142.19Y-65.65
X142.19Y-68.19
X142.19Y-70.73
X142.19Y-73.27
X142.19Y-75.81
X142.19Y-78.35
X142.19Y-80.89
X142.545Y-91.5
X144.545Y-91.5
X146.0Y-39.0
X146.0Y-41.0
X149.81Y-63.11
X149.81Y-65.65
X149.81Y-68.19
X149.81Y-70.73
X149.81Y-73.27
X149.81Y-75.81
X149.81Y-78.35
X149.81Y-80.89
X155.19Y-63.11
X155.19Y-65.65
X155.19Y-68.19
X155.19Y-70.73
X155.19Y-73.27
X155.19Y-75.81
X155.19Y-78.35
X155.19Y-80.89
X156.0Y-33.92
X156.0Y-44.08
X161.0Y-33.92
X161.0Y-44.08
X162.81Y-63.11
X162.81Y-65.65
X162.81Y-68.19
X162.81Y-70.73
X162.81Y-73.27
X162.81Y-75.81
X162.81Y-78.35
X162.81Y-80.89
X166.0Y-33.92
X166.0Y-44.08
X168.19Y-63.11
X168.19Y-65.65
X168.19Y-68.19
X168.19Y-70.73
X168.19Y-73.27
X168.19Y-75.81
X168.19Y-78.35
X168.19Y-80.89
X171.0Y-33.92
X171.0Y-44.08
X175.81Y-63.11
X175.81Y-65.65
X175.81Y-68.19
X175.81Y-70.73
X175.81Y-73.27
X175.81Y-75.81
X175.81Y-78.35
X175.81Y-80.89
X192.532Y-66.983
X192.532Y-69.522
X192.532Y-72.062
X192.532Y-74.602
X192.532Y-77.142
X197.612Y-66.983
X197.612Y-69.522
X197.612Y-72.062
X197.612Y-74.602
X197.612Y-77.142
T3
X151.0Y-52.0
X151.0Y-54.54
X159.0Y-52.0
X159.0Y-54.54
X167.0Y-52.0
X167.0Y-54.54
X176.0Y-52.0
X176.0Y-54.54
T4
X126.15Y-35.0
X138.85Y-35.0
X151.75Y-100.75
X151.75Y-105.25
X158.25Y-100.75
X158.25Y-105.25
T5
X141.0Y-51.0
X144.0Y-51.0
T6
X111.117Y-56.0
X111.117Y-61.0
T7
X125.5Y-65.4
X125.5Y-73.6
T8
X110.0Y-40.0
X110.0Y-100.0
X192.0Y-40.0
X192.0Y-100.0
M30
