%TF.GenerationSoftware,KiCad,Pcbnew,9.0.3*%
%TF.CreationDate,2025-12-16T11:32:59+01:00*%
%TF.ProjectId,PTP_project1,5054505f-7072-46f6-9a65-6374312e6b69,rev?*%
%TF.SameCoordinates,Original*%
%TF.FileFunction,Paste,Top*%
%TF.FilePolarity,Positive*%
%FSLAX46Y46*%
G04 Gerber Fmt 4.6, Leading zero omitted, Abs format (unit mm)*
G04 Created by KiCad (PCBNEW 9.0.3) date 2025-12-16 11:32:59*
%MOMM*%
%LPD*%
G01*
G04 APERTURE LIST*
G04 Aperture macros list*
%AMRoundRect*
0 Rectangle with rounded corners*
0 $1 Rounding radius*
0 $2 $3 $4 $5 $6 $7 $8 $9 X,Y pos of 4 corners*
0 Add a 4 corners polygon primitive as box body*
4,1,4,$2,$3,$4,$5,$6,$7,$8,$9,$2,$3,0*
0 Add four circle primitives for the rounded corners*
1,1,$1+$1,$2,$3*
1,1,$1+$1,$4,$5*
1,1,$1+$1,$6,$7*
1,1,$1+$1,$8,$9*
0 Add four rect primitives between the rounded corners*
20,1,$1+$1,$2,$3,$4,$5,0*
20,1,$1+$1,$4,$5,$6,$7,0*
20,1,$1+$1,$6,$7,$8,$9,0*
20,1,$1+$1,$8,$9,$2,$3,0*%
G04 Aperture macros list end*
%ADD10RoundRect,0.250000X0.625000X-0.400000X0.625000X0.400000X-0.625000X0.400000X-0.625000X-0.400000X0*%
%ADD11RoundRect,0.250000X-0.400000X-0.625000X0.400000X-0.625000X0.400000X0.625000X-0.400000X0.625000X0*%
%ADD12RoundRect,0.150000X-0.512500X-0.150000X0.512500X-0.150000X0.512500X0.150000X-0.512500X0.150000X0*%
%ADD13RoundRect,0.250000X-0.412500X-0.650000X0.412500X-0.650000X0.412500X0.650000X-0.412500X0.650000X0*%
%ADD14RoundRect,0.250000X0.650000X-0.412500X0.650000X0.412500X-0.650000X0.412500X-0.650000X-0.412500X0*%
G04 APERTURE END LIST*
D10*
%TO.C,R9*%
X159500000Y-92550000D03*
X159500000Y-89450000D03*
%TD*%
D11*
%TO.C,R14*%
X183950000Y-90000000D03*
X187050000Y-90000000D03*
%TD*%
%TO.C,R6*%
X183950000Y-81000000D03*
X187050000Y-81000000D03*
%TD*%
D12*
%TO.C,U6*%
X131362500Y-67050000D03*
X131362500Y-68000000D03*
X131362500Y-68950000D03*
X133637500Y-68950000D03*
X133637500Y-68000000D03*
X133637500Y-67050000D03*
%TD*%
D11*
%TO.C,R18*%
X183450000Y-70500000D03*
X186550000Y-70500000D03*
%TD*%
D10*
%TO.C,R10*%
X164000000Y-92550000D03*
X164000000Y-89450000D03*
%TD*%
D13*
%TO.C,C4*%
X112437500Y-89500000D03*
X115562500Y-89500000D03*
%TD*%
D10*
%TO.C,R13*%
X151000000Y-92550000D03*
X151000000Y-89450000D03*
%TD*%
%TO.C,R12*%
X172000000Y-92550000D03*
X172000000Y-89450000D03*
%TD*%
D11*
%TO.C,R5*%
X183950000Y-77000000D03*
X187050000Y-77000000D03*
%TD*%
%TO.C,R17*%
X183450000Y-67000000D03*
X186550000Y-67000000D03*
%TD*%
D10*
%TO.C,R20*%
X106000000Y-76550000D03*
X106000000Y-73450000D03*
%TD*%
%TO.C,R11*%
X168000000Y-92550000D03*
X168000000Y-89450000D03*
%TD*%
D11*
%TO.C,R16*%
X183500000Y-74000000D03*
X186600000Y-74000000D03*
%TD*%
D14*
%TO.C,C5*%
X122500000Y-81562500D03*
X122500000Y-78437500D03*
%TD*%
D11*
%TO.C,R8*%
X183950000Y-84500000D03*
X187050000Y-84500000D03*
%TD*%
D10*
%TO.C,R19*%
X106000000Y-83050000D03*
X106000000Y-79950000D03*
%TD*%
D11*
%TO.C,R15*%
X183450000Y-63500000D03*
X186550000Y-63500000D03*
%TD*%
D10*
%TO.C,R7*%
X155000000Y-92600000D03*
X155000000Y-89500000D03*
%TD*%
M02*
